<?xml version="1.0" encoding="utf-8"?>
<!-- Generator: Adobe Illustrator 25.0.1, SVG Export Plug-In . SVG Version: 6.00 Build 0)  -->
<svg version="1.1" id="Calque_1" xmlns="http://www.w3.org/2000/svg" xmlns:xlink="http://www.w3.org/1999/xlink" x="0px" y="0px"
	 viewBox="0 0 100 100" style="enable-background:new 0 0 100 100;" xml:space="preserve">
<style type="text/css">
	.st0{clip-path:url(#SVGID_2_);}
	.st1{fill:url(#SVGID_3_);}
	.st2{fill:url(#SVGID_4_);}
	.st3{fill-rule:evenodd;clip-rule:evenodd;fill:url(#SVGID_5_);}
	.st4{fill-rule:evenodd;clip-rule:evenodd;fill:url(#SVGID_6_);}
	.st5{fill-rule:evenodd;clip-rule:evenodd;fill:url(#SVGID_7_);}
	.st6{fill-rule:evenodd;clip-rule:evenodd;fill:url(#SVGID_8_);}
	.st7{fill-rule:evenodd;clip-rule:evenodd;fill:url(#SVGID_9_);}
	.st8{fill-rule:evenodd;clip-rule:evenodd;fill:url(#SVGID_10_);}
	.st9{fill-rule:evenodd;clip-rule:evenodd;fill:url(#SVGID_11_);}
	.st10{fill-rule:evenodd;clip-rule:evenodd;fill:url(#SVGID_12_);}
	.st11{fill-rule:evenodd;clip-rule:evenodd;fill:url(#SVGID_13_);}
	.st12{fill-rule:evenodd;clip-rule:evenodd;fill:url(#SVGID_14_);}
	.st13{fill-rule:evenodd;clip-rule:evenodd;fill:url(#SVGID_15_);}
	.st14{fill-rule:evenodd;clip-rule:evenodd;fill:url(#SVGID_16_);}
	.st15{fill-rule:evenodd;clip-rule:evenodd;fill:url(#SVGID_17_);}
	.st16{fill-rule:evenodd;clip-rule:evenodd;fill:url(#SVGID_18_);}
	.st17{opacity:0.28;}
	.st18{fill-rule:evenodd;clip-rule:evenodd;fill:#FFFFFF;}
	.st19{fill-rule:evenodd;clip-rule:evenodd;fill:url(#SVGID_19_);}
	.st20{fill-rule:evenodd;clip-rule:evenodd;fill:url(#SVGID_20_);}
	.st21{fill-rule:evenodd;clip-rule:evenodd;fill:url(#SVGID_21_);}
	.st22{fill-rule:evenodd;clip-rule:evenodd;fill:url(#SVGID_22_);}
	.st23{fill-rule:evenodd;clip-rule:evenodd;fill:url(#SVGID_23_);}
	.st24{fill-rule:evenodd;clip-rule:evenodd;fill:url(#SVGID_24_);}
	.st25{fill-rule:evenodd;clip-rule:evenodd;fill:url(#SVGID_25_);}
	.st26{fill-rule:evenodd;clip-rule:evenodd;fill:url(#SVGID_26_);}
	.st27{fill-rule:evenodd;clip-rule:evenodd;fill:url(#SVGID_27_);}
	.st28{fill-rule:evenodd;clip-rule:evenodd;fill:url(#SVGID_28_);}
	.st29{fill-rule:evenodd;clip-rule:evenodd;fill:url(#SVGID_29_);}
	.st30{fill-rule:evenodd;clip-rule:evenodd;fill:url(#SVGID_30_);}
	.st31{fill-rule:evenodd;clip-rule:evenodd;fill:url(#SVGID_31_);}
	.st32{fill-rule:evenodd;clip-rule:evenodd;fill:url(#SVGID_32_);}
	.st33{fill-rule:evenodd;clip-rule:evenodd;fill:url(#SVGID_33_);}
	.st34{fill-rule:evenodd;clip-rule:evenodd;fill:url(#SVGID_34_);}
	.st35{fill-rule:evenodd;clip-rule:evenodd;fill:url(#SVGID_35_);}
	.st36{fill-rule:evenodd;clip-rule:evenodd;fill:url(#SVGID_36_);}
	.st37{fill-rule:evenodd;clip-rule:evenodd;fill:url(#SVGID_37_);}
	.st38{fill-rule:evenodd;clip-rule:evenodd;fill:url(#SVGID_38_);}
	.st39{fill-rule:evenodd;clip-rule:evenodd;fill:url(#SVGID_39_);}
	.st40{opacity:0.39;fill:#FFFFFF;enable-background:new    ;}
	.st41{fill:#6E150E;}
	.st42{opacity:0.44;}
	.st43{fill:#FFFFFF;}
	.st44{fill:#231F20;}
	.st45{fill:#7F8084;}
	.st46{fill:url(#SVGID_40_);}
	.st47{fill:url(#SVGID_41_);}
	.st48{fill:url(#SVGID_42_);}
	.st49{fill:url(#SVGID_43_);}
	.st50{fill:url(#SVGID_44_);}
	.st51{fill:url(#SVGID_45_);}
	.st52{fill:url(#SVGID_46_);}
	.st53{fill:url(#SVGID_47_);}
	.st54{fill:url(#SVGID_48_);}
	.st55{fill:url(#SVGID_49_);}
	.st56{fill:url(#SVGID_50_);}
	.st57{fill:url(#SVGID_51_);}
	.st58{opacity:0.63;fill:#FFFFFF;enable-background:new    ;}
	.st59{opacity:0.31;fill:#FFFFFF;enable-background:new    ;}
	.st60{fill:url(#SVGID_52_);}
	.st61{fill:url(#SVGID_53_);}
	.st62{fill:url(#SVGID_54_);}
	.st63{fill:url(#SVGID_55_);}
	.st64{fill:url(#SVGID_56_);}
	.st65{fill:url(#SVGID_57_);}
	.st66{fill:url(#SVGID_58_);}
	.st67{fill:url(#SVGID_59_);}
</style>
<g>
	<g>
		<g>
			<g>
				<g>
					<defs>
						<polygon id="SVGID_1_" points="17.39,0 82.51,0 83.58,0.28 84.46,1.11 85.06,2.32 85.25,3.85 85.25,96.2 85.06,97.68 
							84.46,98.93 83.58,99.72 82.51,100 17.39,100 16.33,99.72 15.49,98.93 14.89,97.68 14.75,96.2 14.75,3.85 14.89,2.32 
							15.49,1.11 16.33,0.28 						"/>
					</defs>
					<clipPath id="SVGID_2_">
						<use xlink:href="#SVGID_1_"  style="overflow:visible;"/>
					</clipPath>
					<g class="st0">
						
							<linearGradient id="SVGID_3_" gradientUnits="userSpaceOnUse" x1="2.0872" y1="-1935.7773" x2="112.9406" y2="-1935.7773" gradientTransform="matrix(1 0 0 1 0 2006)">
							<stop  offset="0" style="stop-color:#FDC61F"/>
							<stop  offset="1" style="stop-color:#C1171D"/>
						</linearGradient>
						<rect x="2.09" y="-65.21" class="st1" width="110.85" height="270.87"/>
						
							<linearGradient id="SVGID_4_" gradientUnits="userSpaceOnUse" x1="60.5287" y1="-1934.6178" x2="143.089" y2="-1934.6178" gradientTransform="matrix(1 0 0 1 0 2006)">
							<stop  offset="0" style="stop-color:#E94C31"/>
							<stop  offset="1" style="stop-color:#941914"/>
						</linearGradient>
						<polygon class="st2" points="139.7,26.99 143.09,39.19 123.01,46.34 120.04,64.98 101.07,70.36 99.58,88.36 80.24,93.41 
							76.53,113.78 60.53,115.77 						"/>
						<g>
							<g>
								<g>
									<g>
										
											<linearGradient id="SVGID_5_" gradientUnits="userSpaceOnUse" x1="9936.8896" y1="2487.084" x2="10001.8057" y2="2411.3469" gradientTransform="matrix(-1 0 0 -1 10041.4346 2541.4424)">
											<stop  offset="0" style="stop-color:#FDC61F"/>
											<stop  offset="1" style="stop-color:#C1171D"/>
										</linearGradient>
										<path class="st3" d="M69.62,94.02c0,0-6.12-0.97-8.58,2.5c-0.79,1.11-0.51,2.69,0.6,3.48c0.74,0.56,1.72,0.6,2.46,0.23
											c0.56-0.32,1.16-0.93,1.02-1.86c0,0,0.83,1.25-1.3,3.25c-0.32,0.28-0.65,0.65-1.11,1.02l1.16,0.83
											c0.23-0.56,0.42-1.02,0.6-1.39c1.21-2.64,2.64-2.32,2.64-2.32c-0.88,0.14-1.25,0.93-1.39,1.58
											c-0.09,0.88,0.28,1.72,1.02,2.27c1.11,0.79,2.69,0.51,3.48-0.6C72.59,99.44,69.62,94.02,69.62,94.02z"/>
									</g>
									<g>
										
											<linearGradient id="SVGID_6_" gradientUnits="userSpaceOnUse" x1="9937.7275" y1="2487.7988" x2="10002.6406" y2="2412.0654" gradientTransform="matrix(-1 0 0 -1 10041.4346 2541.4424)">
											<stop  offset="0" style="stop-color:#FDC61F"/>
											<stop  offset="1" style="stop-color:#C1171D"/>
										</linearGradient>
										<path class="st4" d="M76.02,84.88c0,0-6.12-0.97-8.58,2.5c-0.79,1.11-0.51,2.69,0.6,3.43c0.74,0.51,1.67,0.6,2.46,0.23
											c0.56-0.32,1.16-0.93,1.02-1.86c0,0,0.83,1.25-1.3,3.25c-0.32,0.32-0.7,0.65-1.11,1.02l1.16,0.83
											c0.23-0.56,0.42-1.02,0.6-1.39c1.21-2.64,2.64-2.32,2.64-2.32c-0.93,0.14-1.25,0.93-1.39,1.58
											c-0.09,0.83,0.28,1.72,1.02,2.27c1.11,0.79,2.69,0.51,3.48-0.6C79.04,90.31,76.02,84.88,76.02,84.88z"/>
									</g>
									<g>
										
											<linearGradient id="SVGID_7_" gradientUnits="userSpaceOnUse" x1="9938.5234" y1="2488.4839" x2="10003.4385" y2="2412.7488" gradientTransform="matrix(-1 0 0 -1 10041.4346 2541.4424)">
											<stop  offset="0" style="stop-color:#FDC61F"/>
											<stop  offset="1" style="stop-color:#C1171D"/>
										</linearGradient>
										<path class="st5" d="M82.47,75.74c0,0-6.12-0.97-8.58,2.5c-0.79,1.11-0.51,2.69,0.6,3.48c0.74,0.51,1.72,0.6,2.46,0.23
											c0.56-0.37,1.16-0.97,1.02-1.86c0,0,0.83,1.25-1.3,3.25c-0.32,0.32-0.7,0.65-1.11,1.02l1.16,0.83
											c0.19-0.56,0.42-1.02,0.6-1.39c1.21-2.64,2.64-2.32,2.64-2.32c-0.93,0.14-1.25,0.93-1.39,1.58
											c-0.09,0.83,0.28,1.72,1.02,2.27c1.11,0.79,2.69,0.51,3.43-0.6C85.48,81.17,82.47,75.74,82.47,75.74z"/>
									</g>
									<g>
										
											<linearGradient id="SVGID_8_" gradientUnits="userSpaceOnUse" x1="9939.3242" y1="2489.1699" x2="10004.2383" y2="2413.4353" gradientTransform="matrix(-1 0 0 -1 10041.4346 2541.4424)">
											<stop  offset="0" style="stop-color:#FDC61F"/>
											<stop  offset="1" style="stop-color:#C1171D"/>
										</linearGradient>
										<path class="st6" d="M88.91,66.6c0,0-6.12-0.97-8.58,2.5c-0.79,1.11-0.51,2.69,0.6,3.48c0.74,0.56,1.67,0.6,2.46,0.23
											c0.56-0.32,1.16-0.93,0.97-1.86c0,0,0.83,1.25-1.3,3.25c-0.32,0.32-0.7,0.65-1.11,1.02l1.16,0.83
											c0.19-0.56,0.42-1.02,0.6-1.39c1.21-2.64,2.64-2.32,2.64-2.32c-0.93,0.14-1.25,0.93-1.39,1.58
											c-0.09,0.83,0.28,1.72,1.02,2.27c1.11,0.79,2.69,0.51,3.48-0.6C91.88,72.08,88.91,66.6,88.91,66.6z"/>
									</g>
									<g>
										
											<linearGradient id="SVGID_9_" gradientUnits="userSpaceOnUse" x1="9940.1338" y1="2489.864" x2="10005.0488" y2="2414.1282" gradientTransform="matrix(-1 0 0 -1 10041.4346 2541.4424)">
											<stop  offset="0" style="stop-color:#FDC61F"/>
											<stop  offset="1" style="stop-color:#C1171D"/>
										</linearGradient>
										<path class="st7" d="M95.36,57.47c0,0-6.12-0.97-8.58,2.5c-0.79,1.11-0.51,2.69,0.6,3.48c0.74,0.51,1.72,0.6,2.46,0.23
											c0.56-0.37,1.16-0.97,0.97-1.86c0,0,0.83,1.25-1.3,3.25c-0.32,0.32-0.65,0.65-1.11,1.02l1.16,0.83
											c0.23-0.56,0.42-1.02,0.6-1.39c1.21-2.64,2.64-2.32,2.64-2.32c-0.93,0.14-1.25,0.93-1.39,1.58
											c-0.09,0.83,0.28,1.72,1.02,2.27c1.11,0.79,2.69,0.51,3.43-0.6C98.33,62.94,95.36,57.47,95.36,57.47z"/>
									</g>
									<g>
										
											<linearGradient id="SVGID_10_" gradientUnits="userSpaceOnUse" x1="9940.9336" y1="2490.5505" x2="10005.8496" y2="2414.8132" gradientTransform="matrix(-1 0 0 -1 10041.4346 2541.4424)">
											<stop  offset="0" style="stop-color:#FDC61F"/>
											<stop  offset="1" style="stop-color:#C1171D"/>
										</linearGradient>
										<path class="st8" d="M101.76,48.33c0,0-6.12-0.97-8.58,2.5c-0.79,1.11-0.51,2.64,0.6,3.48c0.74,0.51,1.72,0.6,2.46,0.23
											c0.56-0.37,1.16-0.93,1.02-1.86c0,0,0.79,1.25-1.3,3.25c-0.32,0.32-0.7,0.65-1.11,1.02l1.16,0.83
											c0.23-0.56,0.42-1.02,0.6-1.39c1.21-2.64,2.64-2.32,2.64-2.32c-0.93,0.14-1.25,0.93-1.39,1.58
											c-0.09,0.83,0.28,1.72,1.02,2.27c1.11,0.79,2.69,0.51,3.48-0.6C104.78,53.8,101.76,48.33,101.76,48.33z"/>
									</g>
								</g>
							</g>
						</g>
						<g>
							<g>
								<g>
									<g>
										<g>
											
												<linearGradient id="SVGID_11_" gradientUnits="userSpaceOnUse" x1="9868.0762" y1="2551.4277" x2="10006.3604" y2="2390.0925" gradientTransform="matrix(-1 0 0 -1 10041.4346 2541.4424)">
												<stop  offset="0" style="stop-color:#FDC61F"/>
												<stop  offset="1" style="stop-color:#C1171D"/>
											</linearGradient>
											<path class="st9" d="M76.86,100.42c0,0-13.08-2.13-18.32,5.33c-1.67,2.41-1.11,5.71,1.3,7.37
												c1.58,1.16,3.62,1.25,5.29,0.46c1.21-0.74,2.5-1.99,2.13-3.94c0,0,1.72,2.64-2.74,6.91c-0.65,0.65-1.44,1.39-2.37,2.18
												l2.46,1.76c0.46-1.16,0.83-2.13,1.25-2.97c2.5-5.66,5.57-4.92,5.57-4.92c-1.9,0.28-2.69,1.95-3.01,3.34
												c-0.19,1.81,0.6,3.66,2.23,4.82c2.37,1.67,5.66,1.11,7.37-1.25C83.26,112.01,76.86,100.42,76.86,100.42z"/>
										</g>
										<g>
											
												<linearGradient id="SVGID_12_" gradientUnits="userSpaceOnUse" x1="9869.7549" y1="2552.8708" x2="10008.042" y2="2391.5325" gradientTransform="matrix(-1 0 0 -1 10041.4346 2541.4424)">
												<stop  offset="0" style="stop-color:#FDC61F"/>
												<stop  offset="1" style="stop-color:#C1171D"/>
											</linearGradient>
											<path class="st10" d="M90.58,80.98c0,0-13.08-2.09-18.32,5.33c-1.67,2.37-1.11,5.71,1.3,7.37
												c1.58,1.11,3.62,1.25,5.29,0.46c1.21-0.74,2.5-2.04,2.13-3.94c0,0,1.72,2.64-2.74,6.91c-0.65,0.65-1.44,1.39-2.37,2.18
												l2.46,1.76c0.46-1.16,0.88-2.18,1.25-2.97c2.5-5.66,5.57-4.92,5.57-4.92c-1.95,0.28-2.69,1.95-2.97,3.34
												c-0.19,1.81,0.6,3.66,2.23,4.82c2.37,1.67,5.71,1.11,7.37-1.3C96.94,92.58,90.58,80.98,90.58,80.98z"/>
										</g>
										<g>
											
												<linearGradient id="SVGID_13_" gradientUnits="userSpaceOnUse" x1="9871.5117" y1="2554.3738" x2="10009.7969" y2="2393.0369" gradientTransform="matrix(-1 0 0 -1 10041.4346 2541.4424)">
												<stop  offset="0" style="stop-color:#FDC61F"/>
												<stop  offset="1" style="stop-color:#C1171D"/>
											</linearGradient>
											<path class="st11" d="M104.27,61.5c0,0-13.08-2.09-18.32,5.33c-1.67,2.41-1.11,5.71,1.25,7.37
												c1.58,1.11,3.62,1.25,5.29,0.46c1.21-0.74,2.5-2.04,2.13-3.94c0,0,1.72,2.64-2.74,6.91c-0.65,0.65-1.44,1.39-2.41,2.18
												l2.5,1.76c0.42-1.16,0.83-2.13,1.25-2.97c2.5-5.66,5.61-4.92,5.61-4.92c-1.95,0.32-2.69,1.95-3.01,3.34
												c-0.19,1.81,0.6,3.66,2.23,4.78c2.37,1.67,5.66,1.11,7.37-1.25C110.67,73.14,104.27,61.5,104.27,61.5z"/>
										</g>
										<g>
											
												<linearGradient id="SVGID_14_" gradientUnits="userSpaceOnUse" x1="9873.1787" y1="2555.8062" x2="10011.4688" y2="2394.4648" gradientTransform="matrix(-1 0 0 -1 10041.4346 2541.4424)">
												<stop  offset="0" style="stop-color:#FDC61F"/>
												<stop  offset="1" style="stop-color:#C1171D"/>
											</linearGradient>
											<path class="st12" d="M118,42.07c0,0-13.08-2.09-18.32,5.33c-1.67,2.37-1.11,5.66,1.3,7.37
												c1.58,1.16,3.62,1.25,5.29,0.46c1.16-0.74,2.5-1.99,2.13-3.94c0,0,1.72,2.64-2.74,6.91c-0.65,0.65-1.44,1.39-2.37,2.18
												l2.5,1.76c0.42-1.16,0.83-2.13,1.25-2.97c2.5-5.66,5.61-4.92,5.61-4.92c-1.95,0.28-2.69,1.95-3.01,3.34
												c-0.19,1.81,0.6,3.66,2.23,4.78c2.37,1.67,5.71,1.11,7.37-1.3C124.35,53.66,118,42.07,118,42.07z"/>
										</g>
										<g>
											
												<linearGradient id="SVGID_15_" gradientUnits="userSpaceOnUse" x1="9874.9004" y1="2557.2756" x2="10013.1816" y2="2395.9438" gradientTransform="matrix(-1 0 0 -1 10041.4346 2541.4424)">
												<stop  offset="0" style="stop-color:#FDC61F"/>
												<stop  offset="1" style="stop-color:#C1171D"/>
											</linearGradient>
											<path class="st13" d="M131.68,22.63c0,0-13.08-2.09-18.32,5.33c-1.67,2.41-1.11,5.71,1.3,7.37
												c1.62,1.11,3.62,1.25,5.29,0.46c1.21-0.74,2.5-2.04,2.13-3.94c0,0,1.72,2.64-2.74,6.91c-0.65,0.65-1.44,1.39-2.41,2.18
												l2.5,1.76c0.46-1.16,0.88-2.18,1.25-2.97c2.55-5.66,5.61-4.92,5.61-4.92c-1.95,0.32-2.69,1.99-3.01,3.34
												c-0.19,1.81,0.6,3.66,2.23,4.78c2.37,1.67,5.71,1.11,7.37-1.25C138.08,34.23,131.68,22.63,131.68,22.63z"/>
										</g>
										<g>
											
												<linearGradient id="SVGID_16_" gradientUnits="userSpaceOnUse" x1="9876.624" y1="2558.7554" x2="10014.9111" y2="2397.4165" gradientTransform="matrix(-1 0 0 -1 10041.4346 2541.4424)">
												<stop  offset="0" style="stop-color:#FDC61F"/>
												<stop  offset="1" style="stop-color:#C1171D"/>
											</linearGradient>
											<path class="st14" d="M145.41,3.15c0,0-13.08-2.09-18.32,5.33c-1.67,2.37-1.11,5.66,1.3,7.37
												c1.58,1.11,3.62,1.25,5.29,0.46c1.21-0.74,2.5-1.99,2.13-3.94c0,0,1.72,2.64-2.78,6.91c-0.65,0.65-1.44,1.39-2.41,2.18
												l2.5,1.76c0.46-1.16,0.83-2.13,1.25-2.97c2.55-5.66,5.61-4.92,5.61-4.92c-1.95,0.32-2.69,1.95-3.01,3.34
												c-0.19,1.81,0.6,3.66,2.23,4.78c2.41,1.67,5.71,1.11,7.37-1.25C151.76,14.8,145.41,3.15,145.41,3.15z"/>
										</g>
									</g>
								</g>
							</g>
							<g>
								<g>
									<g>
										<g>
											
												<linearGradient id="SVGID_17_" gradientUnits="userSpaceOnUse" x1="9985.2217" y1="2519.7939" x2="10036.6338" y2="2423.1719" gradientTransform="matrix(-1 0 0 -1 10041.4346 2541.4424)">
												<stop  offset="0" style="stop-color:#FDC61F"/>
												<stop  offset="1" style="stop-color:#C1171D"/>
											</linearGradient>
											<path class="st15" d="M23.56,86.87c0,0-13.08-2.13-18.32,5.33c-1.67,2.41-1.11,5.71,1.3,7.37
												c1.58,1.16,3.62,1.25,5.29,0.46c1.21-0.74,2.5-1.99,2.13-3.94c0,0,1.72,2.64-2.74,6.91c-0.65,0.65-1.44,1.39-2.37,2.18
												l2.46,1.76c0.46-1.16,0.83-2.13,1.25-2.97c2.5-5.66,5.57-4.92,5.57-4.92c-1.9,0.28-2.69,1.95-3.01,3.34
												c-0.19,1.81,0.6,3.66,2.23,4.82c2.37,1.67,5.71,1.11,7.37-1.25C29.96,98.47,23.56,86.87,23.56,86.87z"/>
										</g>
										<g>
											
												<linearGradient id="SVGID_18_" gradientUnits="userSpaceOnUse" x1="9982.6182" y1="2518.4023" x2="10034.0264" y2="2421.7869" gradientTransform="matrix(-1 0 0 -1 10041.4346 2541.4424)">
												<stop  offset="0" style="stop-color:#FDC61F"/>
												<stop  offset="1" style="stop-color:#C1171D"/>
											</linearGradient>
											<path class="st16" d="M37.24,67.39c0,0-13.08-2.09-18.32,5.33c-1.67,2.37-1.11,5.71,1.3,7.37
												c1.58,1.11,3.62,1.25,5.29,0.46c1.21-0.74,2.5-2.04,2.13-3.94c0,0,1.72,2.64-2.74,6.91c-0.65,0.65-1.44,1.39-2.37,2.18
												L25,87.48c0.46-1.16,0.88-2.18,1.25-2.97c2.5-5.66,5.61-4.92,5.61-4.92c-1.95,0.28-2.69,1.95-2.97,3.34
												c-0.19,1.81,0.6,3.66,2.23,4.82c2.37,1.67,5.66,1.11,7.37-1.3C43.65,78.99,37.24,67.39,37.24,67.39z"/>
										</g>
										<g class="st17">
											<path class="st18" d="M50.97,47.96c0,0-13.08-2.09-18.32,5.33c-1.72,2.41-1.11,5.71,1.25,7.37
												c1.58,1.11,3.62,1.25,5.29,0.46c1.21-0.74,2.5-2.04,2.13-3.94c0,0,1.72,2.64-2.74,6.91c-0.65,0.65-1.44,1.39-2.41,2.18
												l2.5,1.76c0.42-1.16,0.83-2.13,1.25-2.97c2.5-5.66,5.61-4.92,5.61-4.92c-1.95,0.32-2.69,1.95-2.97,3.34
												c-0.19,1.81,0.6,3.66,2.23,4.78c2.37,1.67,5.71,1.11,7.37-1.25C57.33,59.55,50.97,47.96,50.97,47.96z"/>
										</g>
										<g>
											
												<linearGradient id="SVGID_19_" gradientUnits="userSpaceOnUse" x1="9986.9502" y1="2521.4849" x2="10038.3594" y2="2424.8674" gradientTransform="matrix(-1 0 0 -1 10041.4346 2541.4424)">
												<stop  offset="0" style="stop-color:#FDC61F"/>
												<stop  offset="1" style="stop-color:#C1171D"/>
											</linearGradient>
											<path class="st19" d="M55.1,22.63c0,0-13.08-2.09-18.32,5.33c-1.67,2.37-1.11,5.71,1.3,7.37
												c1.58,1.16,3.62,1.25,5.29,0.46c1.16-0.74,2.5-1.99,2.13-3.94c0,0,1.72,2.64-2.74,6.91c-0.65,0.65-1.44,1.39-2.37,2.18
												l2.5,1.76c0.42-1.16,0.83-2.13,1.25-2.97c2.5-5.66,5.61-4.92,5.61-4.92c-1.95,0.28-2.69,1.95-3.01,3.34
												c-0.19,1.81,0.6,3.66,2.23,4.78c2.41,1.67,5.71,1.11,7.37-1.3C61.46,34.23,55.1,22.63,55.1,22.63z"/>
										</g>
										<g>
											
												<linearGradient id="SVGID_20_" gradientUnits="userSpaceOnUse" x1="9974.7666" y1="2514.2268" x2="10026.1787" y2="2417.6052" gradientTransform="matrix(-1 0 0 -1 10041.4346 2541.4424)">
												<stop  offset="0" style="stop-color:#FDC61F"/>
												<stop  offset="1" style="stop-color:#C1171D"/>
											</linearGradient>
											<path class="st20" d="M78.39,9.04c0,0-13.08-2.09-18.32,5.33c-1.67,2.41-1.11,5.66,1.3,7.37
												c1.62,1.11,3.62,1.25,5.29,0.46c1.21-0.74,2.5-2.04,2.13-3.94c0,0,1.72,2.64-2.74,6.91c-0.65,0.65-1.44,1.39-2.41,2.18
												l2.5,1.76c0.46-1.16,0.88-2.18,1.25-2.97c2.55-5.66,5.61-4.92,5.61-4.92c-1.95,0.32-2.69,1.99-3.01,3.34
												c-0.19,1.81,0.6,3.66,2.23,4.78c2.37,1.67,5.66,1.11,7.37-1.25C84.74,20.64,78.39,9.04,78.39,9.04z"/>
										</g>
										<g>
											
												<linearGradient id="SVGID_21_" gradientUnits="userSpaceOnUse" x1="9972.1611" y1="2512.8413" x2="10023.5713" y2="2416.2234" gradientTransform="matrix(-1 0 0 -1 10041.4346 2541.4424)">
												<stop  offset="0" style="stop-color:#FDC61F"/>
												<stop  offset="1" style="stop-color:#C1171D"/>
											</linearGradient>
											<path class="st21" d="M92.07-10.39c0,0-13.08-2.09-18.32,5.33c-1.67,2.37-1.11,5.66,1.3,7.37
												c1.58,1.11,3.62,1.25,5.29,0.46c1.21-0.74,2.5-1.99,2.13-3.94c0,0,1.72,2.64-2.78,6.91c-0.65,0.65-1.44,1.39-2.37,2.18
												l2.5,1.76c0.46-1.16,0.83-2.13,1.25-2.97c2.55-5.66,5.61-4.92,5.61-4.92C84.74,2.13,84,3.76,83.67,5.15
												c-0.19,1.81,0.6,3.66,2.23,4.78c2.37,1.67,5.71,1.11,7.37-1.25C98.47,1.21,92.07-10.39,92.07-10.39z"/>
										</g>
									</g>
								</g>
							</g>
							<g>
								<g>
									<g>
										<g>
											
												<linearGradient id="SVGID_22_" gradientUnits="userSpaceOnUse" x1="9971.6826" y1="2573.3564" x2="10034.6191" y2="2480.2793" gradientTransform="matrix(-1 0 0 -1 10041.4346 2541.4424)">
												<stop  offset="0" style="stop-color:#FDC61F"/>
												<stop  offset="1" style="stop-color:#C1171D"/>
											</linearGradient>
											<path class="st22" d="M2.55,67.9c0,0-13.08-2.13-18.32,5.33c-1.67,2.41-1.11,5.71,1.3,7.37
												c1.58,1.16,3.62,1.25,5.29,0.46c1.21-0.74,2.5-1.99,2.13-3.94c0,0,1.72,2.64-2.74,6.91c-0.65,0.65-1.44,1.39-2.37,2.18
												l2.46,1.76c0.46-1.16,0.83-2.13,1.25-2.97c2.5-5.66,5.57-4.92,5.57-4.92c-1.9,0.28-2.69,1.95-2.97,3.34
												c-0.19,1.81,0.6,3.66,2.23,4.82c2.37,1.67,5.71,1.11,7.37-1.25C8.91,79.5,2.55,67.9,2.55,67.9z"/>
										</g>
										<g>
											
												<linearGradient id="SVGID_23_" gradientUnits="userSpaceOnUse" x1="9971.3564" y1="2573.1282" x2="10034.2891" y2="2480.0562" gradientTransform="matrix(-1 0 0 -1 10041.4346 2541.4424)">
												<stop  offset="0" style="stop-color:#FDC61F"/>
												<stop  offset="1" style="stop-color:#C1171D"/>
											</linearGradient>
											<path class="st23" d="M16.23,48.47c0,0-13.08-2.09-18.32,5.33c-1.67,2.37-1.11,5.71,1.3,7.37
												c1.58,1.11,3.62,1.25,5.29,0.46C5.71,60.9,7,59.6,6.63,57.7c0,0,1.72,2.64-2.74,6.91C3.25,65.26,2.46,66,1.48,66.79
												l2.46,1.76c0.46-1.16,0.88-2.18,1.25-2.97c2.5-5.66,5.57-4.92,5.57-4.92c-1.95,0.28-2.69,1.95-3.01,3.34
												c-0.19,1.81,0.6,3.66,2.23,4.82c2.37,1.67,5.71,1.11,7.37-1.3C22.63,60.06,16.23,48.47,16.23,48.47z"/>
										</g>
										<g>
											
												<linearGradient id="SVGID_24_" gradientUnits="userSpaceOnUse" x1="9970.9268" y1="2572.8403" x2="10033.8604" y2="2479.7666" gradientTransform="matrix(-1 0 0 -1 10041.4346 2541.4424)">
												<stop  offset="0" style="stop-color:#FDC61F"/>
												<stop  offset="1" style="stop-color:#C1171D"/>
											</linearGradient>
											<path class="st24" d="M29.96,28.99c0,0-13.08-2.09-18.32,5.33c-1.72,2.41-1.11,5.71,1.25,7.37
												c1.58,1.11,3.62,1.25,5.29,0.46c1.21-0.74,2.5-2.04,2.13-3.94c0,0,1.72,2.64-2.74,6.91c-0.65,0.65-1.44,1.39-2.37,2.18
												l2.5,1.76c0.42-1.16,0.83-2.13,1.25-2.97c2.5-5.66,5.61-4.92,5.61-4.92c-1.95,0.32-2.69,1.95-2.97,3.34
												c-0.19,1.81,0.6,3.66,2.23,4.78c2.37,1.67,5.66,1.11,7.37-1.25C36.32,40.58,29.96,28.99,29.96,28.99z"/>
										</g>
										<g>
											
												<linearGradient id="SVGID_25_" gradientUnits="userSpaceOnUse" x1="9970.5645" y1="2572.5964" x2="10033.499" y2="2479.5225" gradientTransform="matrix(-1 0 0 -1 10041.4346 2541.4424)">
												<stop  offset="0" style="stop-color:#FDC61F"/>
												<stop  offset="1" style="stop-color:#C1171D"/>
											</linearGradient>
											<path class="st25" d="M43.65,9.55c0,0-13.08-2.09-18.32,5.33c-1.67,2.37-1.11,5.66,1.3,7.37
												c1.58,1.16,3.62,1.25,5.29,0.46c1.16-0.74,2.5-1.99,2.13-3.94c0,0,1.72,2.64-2.74,6.91c-0.65,0.65-1.44,1.39-2.37,2.18
												l2.5,1.76c0.42-1.16,0.83-2.13,1.25-2.97c2.5-5.66,5.61-4.92,5.61-4.92c-1.95,0.28-2.69,1.95-3.01,3.34
												c-0.19,1.81,0.6,3.66,2.23,4.78c2.41,1.67,5.71,1.11,7.37-1.3C50.05,21.15,43.65,9.55,43.65,9.55z"/>
										</g>
										<g>
											
												<linearGradient id="SVGID_26_" gradientUnits="userSpaceOnUse" x1="9970.1865" y1="2572.3423" x2="10033.123" y2="2479.2644" gradientTransform="matrix(-1 0 0 -1 10041.4346 2541.4424)">
												<stop  offset="0" style="stop-color:#FDC61F"/>
												<stop  offset="1" style="stop-color:#C1171D"/>
											</linearGradient>
											<path class="st26" d="M57.37-9.93c0,0-13.08-2.09-18.32,5.33c-1.67,2.41-1.11,5.66,1.3,7.37
												c1.62,1.11,3.62,1.25,5.29,0.46c1.21-0.74,2.5-2.04,2.13-3.94c0,0,1.72,2.64-2.74,6.91c-0.65,0.65-1.44,1.39-2.41,2.18
												l2.5,1.76c0.46-1.16,0.88-2.18,1.25-2.97c2.55-5.66,5.61-4.92,5.61-4.92c-1.95,0.32-2.69,1.99-3.01,3.34
												c-0.19,1.81,0.6,3.66,2.23,4.78c2.37,1.67,5.71,1.11,7.37-1.25C63.73,1.72,57.37-9.93,57.37-9.93z"/>
										</g>
										<g>
											
												<linearGradient id="SVGID_27_" gradientUnits="userSpaceOnUse" x1="9969.8164" y1="2572.0906" x2="10032.748" y2="2479.0203" gradientTransform="matrix(-1 0 0 -1 10041.4346 2541.4424)">
												<stop  offset="0" style="stop-color:#FDC61F"/>
												<stop  offset="1" style="stop-color:#C1171D"/>
											</linearGradient>
											<path class="st27" d="M71.06-29.36c0,0-13.08-2.09-18.32,5.33c-1.72,2.37-1.11,5.66,1.3,7.37
												c1.58,1.11,3.62,1.25,5.29,0.46c1.21-0.74,2.5-1.99,2.13-3.94c0,0,1.72,2.64-2.78,6.91c-0.65,0.65-1.44,1.39-2.37,2.18
												l2.5,1.76c0.46-1.16,0.83-2.13,1.25-2.97c2.55-5.66,5.61-4.92,5.61-4.92c-1.95,0.32-2.69,1.95-3.01,3.34
												c-0.19,1.81,0.6,3.66,2.23,4.78c2.37,1.67,5.71,1.11,7.37-1.25C77.46-17.76,71.06-29.36,71.06-29.36z"/>
										</g>
									</g>
								</g>
							</g>
							<g>
								<g>
									<g>
										<g>
											
												<linearGradient id="SVGID_28_" gradientUnits="userSpaceOnUse" x1="10010.4541" y1="2568.3308" x2="10073.3867" y2="2475.2581" gradientTransform="matrix(-1 0 0 -1 10041.4346 2541.4424)">
												<stop  offset="0" style="stop-color:#FDC61F"/>
												<stop  offset="1" style="stop-color:#C1171D"/>
											</linearGradient>
											<path class="st28" d="M-36.22,72.91c0,0-13.08-2.13-18.32,5.33c-1.67,2.41-1.11,5.71,1.3,7.37
												c1.58,1.16,3.62,1.25,5.29,0.46c1.21-0.74,2.5-1.99,2.13-3.94c0,0,1.72,2.64-2.74,6.96c-0.65,0.65-1.44,1.39-2.37,2.18
												l2.46,1.76c0.46-1.16,0.83-2.13,1.25-2.97c2.5-5.66,5.57-4.92,5.57-4.92c-1.9,0.28-2.69,1.95-2.97,3.34
												c-0.19,1.81,0.6,3.66,2.23,4.82c2.37,1.67,5.71,1.11,7.37-1.25C-29.82,84.55-36.22,72.91-36.22,72.91z"/>
										</g>
										<g>
											
												<linearGradient id="SVGID_29_" gradientUnits="userSpaceOnUse" x1="10010.1025" y1="2568.0947" x2="10073.0361" y2="2475.0212" gradientTransform="matrix(-1 0 0 -1 10041.4346 2541.4424)">
												<stop  offset="0" style="stop-color:#FDC61F"/>
												<stop  offset="1" style="stop-color:#C1171D"/>
											</linearGradient>
											<path class="st29" d="M-22.5,53.48c0,0-13.08-2.09-18.32,5.33c-1.67,2.37-1.11,5.66,1.3,7.37
												c1.58,1.11,3.62,1.25,5.29,0.46c1.21-0.74,2.5-2.04,2.13-3.94c0,0,1.72,2.64-2.74,6.91c-0.65,0.65-1.44,1.39-2.41,2.18
												l2.46,1.76c0.46-1.16,0.88-2.18,1.25-2.97c2.5-5.66,5.57-4.92,5.57-4.92c-1.95,0.28-2.69,1.95-3.01,3.34
												c-0.19,1.81,0.6,3.66,2.23,4.82c2.37,1.67,5.71,1.11,7.37-1.3C-16.14,65.07-22.5,53.48-22.5,53.48z"/>
										</g>
										<g>
											
												<linearGradient id="SVGID_30_" gradientUnits="userSpaceOnUse" x1="10009.7207" y1="2567.8376" x2="10072.6543" y2="2474.7629" gradientTransform="matrix(-1 0 0 -1 10041.4346 2541.4424)">
												<stop  offset="0" style="stop-color:#FDC61F"/>
												<stop  offset="1" style="stop-color:#C1171D"/>
											</linearGradient>
											<path class="st30" d="M-8.81,34c0,0-13.08-2.09-18.32,5.33c-1.72,2.41-1.11,5.71,1.25,7.37
												c1.58,1.11,3.62,1.25,5.29,0.46c1.21-0.74,2.5-2.04,2.13-3.94c0,0,1.72,2.64-2.74,6.91c-0.65,0.65-1.44,1.39-2.41,2.18
												l2.5,1.76c0.42-1.16,0.83-2.13,1.25-2.97c2.5-5.66,5.61-4.92,5.61-4.92c-1.95,0.32-2.69,1.95-2.97,3.34
												c-0.19,1.81,0.6,3.66,2.23,4.78c2.37,1.67,5.71,1.11,7.37-1.25C-2.41,45.64-8.81,34-8.81,34z"/>
										</g>
										<g>
											
												<linearGradient id="SVGID_31_" gradientUnits="userSpaceOnUse" x1="10009.3438" y1="2567.5823" x2="10072.2773" y2="2474.5088" gradientTransform="matrix(-1 0 0 -1 10041.4346 2541.4424)">
												<stop  offset="0" style="stop-color:#FDC61F"/>
												<stop  offset="1" style="stop-color:#C1171D"/>
											</linearGradient>
											<path class="st31" d="M4.87,14.56c0,0-13.08-2.09-18.32,5.33c-1.67,2.37-1.11,5.71,1.3,7.37
												c1.58,1.16,3.62,1.25,5.29,0.46c1.16-0.74,2.5-1.99,2.13-3.94c0,0,1.72,2.64-2.74,6.91c-0.65,0.65-1.44,1.39-2.37,2.18
												l2.5,1.76c0.42-1.16,0.83-2.13,1.25-2.97c2.5-5.66,5.61-4.92,5.61-4.92c-1.95,0.28-2.69,1.95-3.01,3.34
												c-0.19,1.81,0.6,3.66,2.23,4.78c2.41,1.67,5.71,1.11,7.37-1.3C11.27,26.21,4.87,14.56,4.87,14.56z"/>
										</g>
										<g>
											
												<linearGradient id="SVGID_32_" gradientUnits="userSpaceOnUse" x1="10008.9424" y1="2567.3152" x2="10071.8799" y2="2474.2363" gradientTransform="matrix(-1 0 0 -1 10041.4346 2541.4424)">
												<stop  offset="0" style="stop-color:#FDC61F"/>
												<stop  offset="1" style="stop-color:#C1171D"/>
											</linearGradient>
											<path class="st32" d="M18.6-4.87c0,0-13.08-2.09-18.32,5.33c-1.67,2.41-1.11,5.71,1.3,7.37C3.2,8.95,5.19,9.09,6.86,8.3
												C8.07,7.56,9.37,6.26,9,4.36c0,0,1.72,2.64-2.74,6.91c-0.65,0.65-1.44,1.39-2.41,2.18l2.5,1.76
												c0.46-1.16,0.88-2.18,1.25-2.97c2.55-5.66,5.61-4.92,5.61-4.92c-1.95,0.32-2.69,1.99-3.01,3.34
												c-0.19,1.81,0.6,3.66,2.23,4.78c2.37,1.67,5.71,1.11,7.37-1.25C25,6.73,18.6-4.87,18.6-4.87z"/>
										</g>
										<g>
											
												<linearGradient id="SVGID_33_" gradientUnits="userSpaceOnUse" x1="10008.541" y1="2567.041" x2="10071.4736" y2="2473.9692" gradientTransform="matrix(-1 0 0 -1 10041.4346 2541.4424)">
												<stop  offset="0" style="stop-color:#FDC61F"/>
												<stop  offset="1" style="stop-color:#C1171D"/>
											</linearGradient>
											<path class="st33" d="M32.33-24.3c0,0-13.08-2.09-18.32,5.33c-1.67,2.37-1.11,5.66,1.3,7.37
												c1.58,1.11,3.62,1.25,5.29,0.46c1.21-0.74,2.5-1.99,2.13-3.94c0,0,1.72,2.64-2.78,6.91c-0.65,0.65-1.44,1.39-2.37,2.18
												l2.5,1.76c0.46-1.16,0.83-2.13,1.25-2.97c2.55-5.66,5.61-4.92,5.61-4.92c-1.95,0.32-2.69,1.95-3.01,3.34
												c-0.19,1.81,0.6,3.66,2.23,4.78c2.37,1.67,5.66,1.11,7.37-1.25C38.68-12.71,32.33-24.3,32.33-24.3z"/>
										</g>
									</g>
								</g>
							</g>
							<g>
								<g>
									<g>
										<g>
											
												<linearGradient id="SVGID_34_" gradientUnits="userSpaceOnUse" x1="9902.6982" y1="2547.676" x2="10040.9863" y2="2386.3369" gradientTransform="matrix(-1 0 0 -1 10041.4346 2541.4424)">
												<stop  offset="0" style="stop-color:#FDC61F"/>
												<stop  offset="1" style="stop-color:#C1171D"/>
											</linearGradient>
											<path class="st34" d="M48.28,97.08c0,0-13.08-2.13-18.32,5.33c-1.67,2.41-1.11,5.71,1.3,7.37
												c1.58,1.16,3.62,1.25,5.29,0.46c1.21-0.74,2.5-1.99,2.13-3.94c0,0,1.72,2.64-2.74,6.91c-0.65,0.65-1.44,1.39-2.41,2.18
												l2.5,1.76c0.42-1.16,0.83-2.13,1.25-2.97c2.55-5.66,5.61-4.92,5.61-4.92c-1.9,0.28-2.69,1.95-3.01,3.34
												c-0.19,1.81,0.6,3.66,2.23,4.82c2.37,1.67,5.71,1.11,7.37-1.25C54.64,108.67,48.28,97.08,48.28,97.08z"/>
										</g>
										<g>
											
												<linearGradient id="SVGID_35_" gradientUnits="userSpaceOnUse" x1="9904.4336" y1="2549.1631" x2="10042.7227" y2="2387.8225" gradientTransform="matrix(-1 0 0 -1 10041.4346 2541.4424)">
												<stop  offset="0" style="stop-color:#FDC61F"/>
												<stop  offset="1" style="stop-color:#C1171D"/>
											</linearGradient>
											<path class="st35" d="M61.97,77.6c0,0-13.08-2.09-18.32,5.33c-1.67,2.37-1.11,5.71,1.3,7.37
												c1.58,1.11,3.62,1.25,5.29,0.46c1.21-0.74,2.5-2.04,2.13-3.94c0,0,1.72,2.64-2.74,6.91c-0.65,0.65-1.44,1.39-2.41,2.18
												l2.5,1.76c0.42-1.16,0.88-2.18,1.25-2.97c2.5-5.66,5.61-4.92,5.61-4.92c-1.95,0.28-2.69,1.95-2.97,3.34
												c-0.19,1.81,0.6,3.66,2.23,4.82c2.37,1.67,5.66,1.11,7.37-1.3C68.37,89.19,61.97,77.6,61.97,77.6z"/>
										</g>
										<g>
											
												<linearGradient id="SVGID_36_" gradientUnits="userSpaceOnUse" x1="9906.165" y1="2550.6404" x2="10044.4482" y2="2389.3062" gradientTransform="matrix(-1 0 0 -1 10041.4346 2541.4424)">
												<stop  offset="0" style="stop-color:#FDC61F"/>
												<stop  offset="1" style="stop-color:#C1171D"/>
											</linearGradient>
											<path class="st36" d="M75.7,58.16c0,0-13.08-2.09-18.32,5.33c-1.67,2.41-1.11,5.71,1.25,7.37
												c1.62,1.11,3.62,1.25,5.29,0.46c1.21-0.74,2.5-2.04,2.13-3.94c0,0,1.72,2.64-2.78,6.91c-0.65,0.65-1.44,1.39-2.41,2.18
												l2.5,1.76c0.46-1.16,0.88-2.13,1.25-2.97c2.5-5.66,5.61-4.92,5.61-4.92c-1.95,0.32-2.69,1.95-3.01,3.34
												c-0.19,1.81,0.6,3.66,2.23,4.78c2.41,1.67,5.71,1.11,7.37-1.25C82.05,69.76,75.7,58.16,75.7,58.16z"/>
										</g>
										<g>
											
												<linearGradient id="SVGID_37_" gradientUnits="userSpaceOnUse" x1="9907.8994" y1="2552.1262" x2="10046.1807" y2="2390.7942" gradientTransform="matrix(-1 0 0 -1 10041.4346 2541.4424)">
												<stop  offset="0" style="stop-color:#FDC61F"/>
												<stop  offset="1" style="stop-color:#C1171D"/>
											</linearGradient>
											<path class="st37" d="M89.38,38.68c0,0-13.08-2.09-18.32,5.33c-1.67,2.37-1.11,5.71,1.3,7.37
												c1.58,1.16,3.62,1.25,5.29,0.46c1.21-0.74,2.5-1.99,2.13-3.94c0,0,1.72,2.64-2.74,6.91c-0.65,0.65-1.44,1.39-2.41,2.18
												l2.5,1.76c0.42-1.16,0.83-2.13,1.25-2.97c2.55-5.66,5.61-4.92,5.61-4.92c-1.95,0.28-2.69,1.95-3.01,3.34
												c-0.19,1.81,0.6,3.66,2.18,4.78c2.41,1.67,5.71,1.11,7.37-1.3C95.78,50.32,89.38,38.68,89.38,38.68z"/>
										</g>
										<g>
											
												<linearGradient id="SVGID_38_" gradientUnits="userSpaceOnUse" x1="9909.5645" y1="2553.5571" x2="10047.8516" y2="2392.2188" gradientTransform="matrix(-1 0 0 -1 10041.4346 2541.4424)">
												<stop  offset="0" style="stop-color:#FDC61F"/>
												<stop  offset="1" style="stop-color:#C1171D"/>
											</linearGradient>
											<path class="st38" d="M103.11,19.25c0,0-13.08-2.09-18.32,5.33c-1.67,2.41-1.11,5.71,1.25,7.37
												c1.62,1.11,3.62,1.25,5.29,0.46c1.21-0.74,2.5-2.04,2.13-3.94c0,0,1.72,2.64-2.74,6.91c-0.65,0.65-1.44,1.39-2.37,2.18
												l2.5,1.76c0.42-1.16,0.83-2.18,1.25-2.97c2.55-5.66,5.61-4.92,5.61-4.92c-1.95,0.32-2.69,1.99-3.01,3.34
												c-0.19,1.81,0.6,3.66,2.23,4.78c2.37,1.67,5.66,1.11,7.37-1.25C109.46,30.84,103.11,19.25,103.11,19.25z"/>
										</g>
										<g>
											
												<linearGradient id="SVGID_39_" gradientUnits="userSpaceOnUse" x1="9911.2783" y1="2555.0249" x2="10049.5654" y2="2393.6868" gradientTransform="matrix(-1 0 0 -1 10041.4346 2541.4424)">
												<stop  offset="0" style="stop-color:#FDC61F"/>
												<stop  offset="1" style="stop-color:#C1171D"/>
											</linearGradient>
											<path class="st39" d="M116.79-0.19c0,0-13.08-2.09-18.32,5.33c-1.67,2.37-1.11,5.66,1.3,7.37
												c1.58,1.11,3.62,1.25,5.29,0.46c1.21-0.74,2.5-1.99,2.13-3.94c0,0,1.72,2.64-2.74,6.91c-0.65,0.65-1.44,1.39-2.41,2.18
												l2.5,1.76c0.42-1.16,0.83-2.13,1.25-2.97c2.55-5.66,5.61-4.92,5.61-4.92c-1.95,0.32-2.69,1.95-3.01,3.34
												c-0.19,1.81,0.6,3.66,2.23,4.78c2.37,1.67,5.71,1.11,7.37-1.25C123.19,11.41,116.79-0.19,116.79-0.19z"/>
										</g>
									</g>
								</g>
							</g>
						</g>
						<g>
							<path class="st40" d="M102.04,7.56c0-25-20.27-45.22-45.22-45.22c-25,0-45.22,20.27-45.22,45.22s20.27,45.22,45.22,45.22
								S102.04,32.51,102.04,7.56z M27.55,7.56c0-16.14,13.08-29.27,29.27-29.27c16.14,0,29.27,13.08,29.27,29.27
								S73.01,36.83,56.82,36.83C40.63,36.78,27.55,23.7,27.55,7.56z"/>
							<g>
								<g>
									<path class="st41" d="M103.01,6.45c-0.19-0.32-0.32-0.74-0.42-1.16c0-0.09-0.05-0.23-0.05-0.32s-0.05-0.14-0.05-0.14l0,0
										l0,0c-0.05,0-0.19,0.28-0.19,0.32c-0.23,0.37-0.51,0.74-0.83,1.02c-0.83,0.79-1.86,1.25-2.23,2.13
										c-0.28,0.6-0.23,1.35,0.09,1.9c0.19,0.32,0.46,0.51,0.79,0.6c0.42,0.05,0.79-0.09,1.11-0.42c0.19-0.19,0.28-0.37,0.42-0.65
										c0.05,0.79,0.46,1.44,1.07,1.53c0.32,0.05,0.65-0.05,0.97-0.28c0.51-0.42,0.79-1.11,0.74-1.76
										C104.36,8.26,103.57,7.51,103.01,6.45z"/>
								</g>
								<g>
									<path class="st41" d="M102.04,12.66c-0.19-0.32-0.32-0.74-0.42-1.16c0-0.09-0.05-0.23-0.05-0.32
										c0-0.09-0.05-0.14-0.05-0.14l0,0l0,0c-0.05,0-0.19,0.28-0.19,0.32c-0.23,0.37-0.51,0.74-0.83,1.02
										c-0.83,0.79-1.86,1.25-2.23,2.13c-0.28,0.6-0.23,1.35,0.09,1.9c0.19,0.32,0.46,0.51,0.79,0.6
										c0.42,0.05,0.79-0.09,1.11-0.42c0.19-0.19,0.28-0.37,0.42-0.65c0.05,0.79,0.46,1.44,1.07,1.53
										c0.32,0.05,0.65-0.05,0.97-0.28c0.51-0.42,0.79-1.11,0.74-1.76C103.34,14.47,102.55,13.68,102.04,12.66z"/>
								</g>
								<g>
									<path class="st41" d="M101.02,18.88c-0.19-0.32-0.32-0.74-0.42-1.16c0-0.09-0.05-0.23-0.05-0.32
										c0-0.09-0.05-0.14-0.05-0.14l0,0l0,0c-0.05,0-0.19,0.28-0.19,0.32c-0.23,0.37-0.51,0.74-0.83,1.02
										c-0.83,0.79-1.86,1.25-2.23,2.13c-0.28,0.6-0.23,1.35,0.09,1.9c0.19,0.32,0.46,0.51,0.79,0.6
										c0.42,0.05,0.79-0.09,1.11-0.42c0.19-0.19,0.28-0.37,0.42-0.65c0.05,0.79,0.46,1.44,1.07,1.53
										c0.32,0.05,0.65-0.05,0.97-0.28c0.51-0.42,0.79-1.11,0.74-1.76C102.32,20.69,101.53,19.9,101.02,18.88z"/>
								</g>
								<g>
									<path class="st41" d="M98.98,25c-0.05-0.37-0.09-0.79-0.05-1.21c0-0.09,0.05-0.23,0.05-0.32c0-0.09,0-0.14,0-0.14l0,0l0,0
										c-0.05-0.05-0.23,0.19-0.28,0.23c-0.32,0.32-0.7,0.56-1.11,0.74c-1.07,0.51-2.13,0.65-2.78,1.35
										c-0.42,0.46-0.65,1.21-0.51,1.81c0.09,0.37,0.28,0.65,0.6,0.79c0.37,0.19,0.79,0.14,1.21-0.05
										c0.23-0.09,0.42-0.28,0.56-0.46c-0.23,0.74,0,1.48,0.56,1.76c0.28,0.14,0.65,0.14,0.97,0.05c0.6-0.23,1.07-0.83,1.25-1.44
										C99.68,27.13,99.17,26.16,98.98,25z"/>
								</g>
								<g>
									<path class="st41" d="M96.1,30.57c-0.05-0.37-0.09-0.79-0.05-1.21c0-0.09,0.05-0.23,0.05-0.32s0-0.14,0-0.14l0,0l0,0
										c-0.05-0.05-0.23,0.19-0.28,0.23c-0.32,0.32-0.7,0.56-1.11,0.74c-1.07,0.51-2.13,0.65-2.78,1.35
										c-0.42,0.46-0.65,1.21-0.51,1.81c0.09,0.37,0.28,0.65,0.6,0.79c0.37,0.19,0.79,0.14,1.21-0.05
										c0.19-0.09,0.42-0.28,0.56-0.46c-0.23,0.74,0,1.48,0.56,1.76c0.32,0.14,0.65,0.14,0.97,0.05c0.6-0.23,1.07-0.83,1.25-1.44
										C96.8,32.7,96.29,31.73,96.1,30.57z"/>
								</g>
								<g>
									<path class="st41" d="M92.67,36.04c0.05-0.37,0.14-0.79,0.32-1.16c0.05-0.09,0.09-0.19,0.14-0.28
										c0.05-0.09,0.05-0.14,0.05-0.14l0,0l0,0c-0.05-0.05-0.28,0.14-0.32,0.14c-0.42,0.19-0.83,0.32-1.25,0.37
										c-1.16,0.14-2.23-0.05-3.06,0.42c-0.56,0.32-0.97,0.97-1.02,1.58c-0.05,0.37,0.09,0.7,0.32,0.93
										c0.28,0.28,0.74,0.37,1.16,0.28c0.23-0.05,0.46-0.14,0.7-0.28c-0.42,0.65-0.46,1.44,0,1.86c0.23,0.23,0.56,0.37,0.93,0.32
										c0.65-0.05,1.25-0.46,1.62-0.97C92.67,38.27,92.49,37.2,92.67,36.04z"/>
								</g>
								<g>
									<path class="st41" d="M88.22,40.49c0.05-0.37,0.14-0.79,0.32-1.16c0.05-0.09,0.09-0.19,0.14-0.28
										c0.05-0.09,0.05-0.14,0.05-0.14l0,0l0,0c-0.05-0.05-0.28,0.14-0.32,0.14c-0.42,0.19-0.83,0.32-1.25,0.37
										c-1.16,0.14-2.23-0.05-3.06,0.42c-0.56,0.32-0.97,0.97-1.02,1.58c-0.05,0.37,0.09,0.7,0.32,0.93
										c0.28,0.28,0.74,0.37,1.16,0.28c0.23-0.05,0.46-0.14,0.7-0.28c-0.42,0.65-0.46,1.44,0,1.86c0.23,0.23,0.56,0.37,0.93,0.32
										c0.65-0.05,1.25-0.46,1.62-0.97C88.22,42.72,88.03,41.65,88.22,40.49z"/>
								</g>
								<g>
									<path class="st41" d="M83.49,44.94c0.19-0.32,0.37-0.7,0.7-1.02c0.09-0.09,0.14-0.14,0.23-0.23
										c0.05-0.05,0.09-0.09,0.09-0.14l0,0l0,0c-0.05-0.05-0.32,0.05-0.37,0.05c-0.46,0.05-0.88,0.05-1.35-0.05
										c-1.16-0.19-2.13-0.74-3.06-0.51c-0.65,0.14-1.21,0.6-1.44,1.21c-0.14,0.32-0.14,0.7,0,0.97c0.19,0.37,0.56,0.6,1.02,0.65
										c0.23,0.05,0.51,0,0.74-0.05c-0.6,0.51-0.88,1.21-0.6,1.76c0.14,0.32,0.46,0.51,0.79,0.6c0.6,0.14,1.35-0.05,1.86-0.46
										C82.84,47.08,82.98,46.01,83.49,44.94z"/>
								</g>
								<g>
									<path class="st41" d="M77.92,47.87c0.19-0.32,0.37-0.7,0.7-1.02c0.09-0.09,0.14-0.14,0.23-0.23
										c0.05-0.05,0.09-0.09,0.09-0.14l0,0l0,0c-0.05-0.05-0.32,0.05-0.37,0.05c-0.46,0.05-0.88,0.05-1.35-0.05
										c-1.16-0.19-2.13-0.74-3.06-0.51c-0.65,0.14-1.21,0.6-1.44,1.21c-0.14,0.32-0.14,0.7,0,0.97c0.19,0.37,0.56,0.6,1.02,0.65
										c0.23,0.05,0.51,0,0.74-0.05c-0.6,0.51-0.88,1.21-0.6,1.76c0.14,0.32,0.46,0.51,0.79,0.6c0.6,0.14,1.35-0.05,1.86-0.46
										C77.23,50,77.41,48.89,77.92,47.87z"/>
								</g>
								<g>
									<path class="st41" d="M72.17,51.11c0.28-0.28,0.6-0.56,0.97-0.74c0.09-0.05,0.19-0.09,0.28-0.14
										c0.09-0.05,0.14-0.05,0.14-0.09l0,0l0,0c0-0.05-0.28-0.09-0.37-0.09c-0.42-0.09-0.83-0.23-1.25-0.46
										c-1.02-0.56-1.81-1.35-2.74-1.44c-0.65-0.05-1.35,0.19-1.76,0.7c-0.23,0.28-0.37,0.6-0.28,0.93
										c0.05,0.42,0.37,0.74,0.79,0.93c0.23,0.09,0.46,0.14,0.74,0.19c-0.74,0.28-1.21,0.88-1.11,1.48
										c0.05,0.32,0.28,0.6,0.56,0.83c0.56,0.32,1.3,0.37,1.9,0.14C70.87,52.92,71.38,51.95,72.17,51.11z"/>
								</g>
								<g>
									<path class="st41" d="M66,52.09c0.28-0.28,0.6-0.56,0.97-0.74c0.09-0.05,0.19-0.09,0.28-0.14
										c0.09-0.05,0.14-0.05,0.14-0.09l0,0l0,0c0-0.05-0.28-0.09-0.37-0.09c-0.42-0.09-0.83-0.23-1.25-0.46
										c-1.02-0.56-1.81-1.35-2.74-1.44c-0.65-0.05-1.35,0.19-1.76,0.7c-0.23,0.28-0.37,0.6-0.28,0.93
										c0.05,0.42,0.37,0.74,0.79,0.93c0.23,0.09,0.46,0.14,0.74,0.19c-0.74,0.28-1.21,0.88-1.11,1.48
										c0.05,0.32,0.28,0.6,0.56,0.83c0.56,0.32,1.3,0.37,1.9,0.14C64.7,53.94,65.17,52.92,66,52.09z"/>
								</g>
								<g>
									<path class="st41" d="M59.79,53.11c0.28-0.28,0.6-0.56,0.97-0.74c0.09-0.05,0.19-0.09,0.28-0.14
										c0.09-0.05,0.14-0.05,0.14-0.09l0,0l0,0c0-0.05-0.28-0.09-0.37-0.09c-0.42-0.09-0.83-0.23-1.25-0.46
										c-1.02-0.56-1.81-1.35-2.74-1.44c-0.65-0.05-1.35,0.19-1.76,0.7c-0.23,0.28-0.37,0.6-0.28,0.93
										c0.05,0.42,0.37,0.74,0.79,0.93c0.23,0.09,0.46,0.14,0.74,0.19c-0.74,0.28-1.21,0.88-1.11,1.48
										c0.05,0.32,0.28,0.6,0.56,0.83c0.56,0.32,1.3,0.37,1.9,0.14C58.49,54.92,58.95,53.94,59.79,53.11z"/>
								</g>
								<g>
									<path class="st41" d="M53.34,53.01c0.32-0.19,0.74-0.32,1.16-0.42c0.09,0,0.23-0.05,0.32-0.05c0.09,0,0.14-0.05,0.14-0.05
										l0,0l0,0c0-0.05-0.28-0.14-0.32-0.19c-0.37-0.23-0.74-0.51-1.02-0.83c-0.79-0.83-1.25-1.86-2.13-2.23
										c-0.6-0.28-1.35-0.23-1.9,0.09c-0.32,0.19-0.51,0.46-0.6,0.79c-0.05,0.42,0.09,0.79,0.42,1.11
										c0.19,0.19,0.37,0.28,0.65,0.42c-0.79,0.05-1.44,0.46-1.53,1.07c-0.05,0.32,0.05,0.65,0.28,0.97
										c0.42,0.51,1.11,0.79,1.76,0.74C51.53,54.36,52.27,53.57,53.34,53.01z"/>
								</g>
								<g>
									<path class="st41" d="M47.12,52.04c0.32-0.19,0.74-0.32,1.16-0.42c0.09,0,0.23-0.05,0.32-0.05c0.09,0,0.14-0.05,0.14-0.05
										l0,0l0,0c0-0.05-0.28-0.14-0.32-0.19c-0.37-0.23-0.74-0.51-1.02-0.83c-0.79-0.83-1.25-1.86-2.13-2.23
										c-0.6-0.28-1.35-0.23-1.9,0.09c-0.32,0.19-0.51,0.46-0.6,0.79c-0.05,0.42,0.09,0.79,0.42,1.11
										c0.19,0.19,0.37,0.28,0.65,0.42c-0.79,0.05-1.44,0.46-1.53,1.07c-0.05,0.32,0.05,0.65,0.28,0.97
										c0.42,0.51,1.11,0.79,1.76,0.74C45.32,53.34,46.1,52.55,47.12,52.04z"/>
								</g>
								<g>
									<path class="st41" d="M40.82,50.51c0.37-0.05,0.79-0.09,1.21-0.05c0.09,0,0.23,0.05,0.32,0.05c0.09,0,0.14,0,0.14,0l0,0
										l0,0c0.05-0.05-0.19-0.23-0.23-0.28c-0.28-0.32-0.56-0.7-0.74-1.11c-0.51-1.07-0.65-2.13-1.35-2.78
										c-0.46-0.42-1.21-0.65-1.81-0.51c-0.37,0.09-0.65,0.28-0.79,0.6c-0.19,0.37-0.14,0.79,0.05,1.21
										c0.09,0.23,0.28,0.42,0.46,0.56c-0.74-0.23-1.48,0-1.76,0.56c-0.14,0.32-0.14,0.65-0.05,0.97c0.23,0.6,0.83,1.07,1.44,1.25
										C38.68,51.21,39.66,50.7,40.82,50.51z"/>
								</g>
								<g>
									<path class="st41" d="M35.25,47.63c0.37-0.05,0.79-0.09,1.21-0.05c0.09,0,0.23,0.05,0.32,0.05s0.14,0,0.14,0l0,0l0,0
										c0.05-0.05-0.19-0.23-0.23-0.28c-0.28-0.32-0.56-0.7-0.74-1.11c-0.51-1.07-0.65-2.13-1.35-2.78
										c-0.46-0.42-1.21-0.65-1.81-0.51c-0.37,0.09-0.65,0.28-0.79,0.6c-0.19,0.37-0.14,0.79,0.05,1.21
										c0.09,0.23,0.28,0.42,0.46,0.56c-0.74-0.23-1.48,0-1.76,0.56c-0.14,0.32-0.14,0.65-0.05,0.97c0.23,0.6,0.83,1.07,1.44,1.25
										C33.12,48.33,34.09,47.82,35.25,47.63z"/>
								</g>
								<g>
									<path class="st41" d="M29.5,44.57c0.37,0.05,0.79,0.14,1.16,0.32c0.09,0.05,0.19,0.09,0.28,0.14
										c0.09,0.05,0.14,0.05,0.14,0.05l0,0l0,0c0.05-0.05-0.14-0.28-0.14-0.32c-0.19-0.42-0.32-0.83-0.37-1.25
										c-0.14-1.16,0.05-2.23-0.42-3.06c-0.32-0.56-0.97-0.97-1.58-1.02c-0.37-0.05-0.7,0.09-0.93,0.32
										c-0.28,0.28-0.37,0.74-0.28,1.16c0.05,0.23,0.14,0.46,0.28,0.7c-0.65-0.42-1.44-0.46-1.86,0
										c-0.23,0.23-0.37,0.56-0.32,0.93c0.05,0.65,0.46,1.25,0.97,1.62C27.23,44.57,28.34,44.39,29.5,44.57z"/>
								</g>
								<g>
									<path class="st41" d="M25.05,40.12c0.37,0.05,0.79,0.14,1.16,0.32c0.09,0.05,0.19,0.09,0.28,0.14
										c0.09,0.05,0.14,0.05,0.14,0.05l0,0l0,0c0.05-0.05-0.14-0.28-0.14-0.32c-0.19-0.42-0.28-0.83-0.37-1.25
										c-0.14-1.16,0.05-2.23-0.42-3.06c-0.32-0.56-0.97-0.97-1.58-1.02c-0.37-0.05-0.7,0.09-0.93,0.32
										c-0.28,0.28-0.37,0.74-0.28,1.16c0.05,0.23,0.14,0.46,0.28,0.7c-0.65-0.42-1.44-0.46-1.86,0
										c-0.23,0.23-0.37,0.56-0.32,0.93c0.05,0.65,0.46,1.25,0.97,1.62C22.77,40.17,23.89,39.94,25.05,40.12z"/>
								</g>
								<g>
									<path class="st41" d="M20.13,35.71c0.32,0.19,0.7,0.37,1.02,0.7c0.09,0.09,0.14,0.14,0.23,0.23
										c0.05,0.05,0.09,0.09,0.14,0.09l0,0l0,0c0.05-0.05-0.05-0.32-0.05-0.37c-0.05-0.46-0.05-0.88,0.05-1.35
										c0.19-1.16,0.74-2.13,0.51-3.06c-0.14-0.65-0.6-1.21-1.21-1.44c-0.32-0.14-0.7-0.14-0.97,0c-0.37,0.19-0.6,0.56-0.65,1.02
										c-0.05,0.23,0,0.51,0.05,0.74c-0.51-0.6-1.21-0.88-1.76-0.6c-0.32,0.14-0.51,0.46-0.6,0.79c-0.14,0.6,0.05,1.35,0.46,1.86
										C18,35.06,19.11,35.2,20.13,35.71z"/>
								</g>
								<g>
									<path class="st41" d="M17.25,30.15c0.32,0.19,0.7,0.37,1.02,0.7c0.09,0.09,0.14,0.14,0.23,0.23
										c0.05,0.05,0.09,0.09,0.14,0.09l0,0l0,0c0.05-0.05-0.05-0.32-0.05-0.37c-0.05-0.46-0.05-0.88,0.05-1.35
										c0.19-1.16,0.74-2.13,0.51-3.06c-0.14-0.65-0.6-1.21-1.21-1.44c-0.32-0.14-0.7-0.14-0.97,0c-0.37,0.19-0.6,0.56-0.65,1.02
										c-0.05,0.23,0,0.51,0.05,0.74c-0.51-0.6-1.21-0.88-1.76-0.6c-0.32,0.14-0.51,0.46-0.6,0.79c-0.14,0.6,0.05,1.35,0.46,1.86
										C15.12,29.45,16.19,29.64,17.25,30.15z"/>
								</g>
								<g>
									<path class="st41" d="M14.38,24.54c0.32,0.19,0.7,0.37,1.02,0.7c0.09,0.09,0.14,0.14,0.23,0.23
										c0.05,0.05,0.09,0.09,0.14,0.09l0,0l0,0c0.05-0.05-0.05-0.32-0.05-0.37c-0.05-0.46-0.05-0.88,0.05-1.35
										c0.19-1.16,0.74-2.13,0.51-3.06c-0.14-0.65-0.6-1.21-1.21-1.44c-0.32-0.14-0.7-0.14-0.97,0c-0.37,0.19-0.6,0.56-0.65,1.02
										c-0.05,0.23,0,0.51,0.05,0.74c-0.51-0.6-1.21-0.88-1.76-0.6c-0.32,0.14-0.51,0.46-0.6,0.79c-0.14,0.6,0.05,1.35,0.46,1.86
										C12.24,23.89,13.31,24.03,14.38,24.54z"/>
								</g>
								<g>
									<path class="st41" d="M12.48,18.37c0.28,0.28,0.56,0.6,0.74,0.97c0.05,0.09,0.09,0.19,0.14,0.28
										c0.05,0.09,0.05,0.14,0.09,0.14l0,0l0,0c0.05,0,0.09-0.32,0.09-0.37c0.09-0.42,0.23-0.83,0.46-1.25
										c0.56-1.02,1.35-1.81,1.44-2.74c0.05-0.65-0.19-1.35-0.7-1.76c-0.28-0.23-0.6-0.37-0.93-0.28
										c-0.42,0.05-0.74,0.37-0.93,0.79c-0.09,0.23-0.14,0.46-0.19,0.74c-0.28-0.74-0.88-1.21-1.48-1.11
										c-0.32,0.05-0.6,0.28-0.83,0.56c-0.32,0.56-0.37,1.3-0.14,1.9C10.67,17.07,11.64,17.53,12.48,18.37z"/>
								</g>
								<g>
									<path class="st41" d="M11.5,12.15c0.28,0.28,0.56,0.6,0.74,0.97c0.05,0.09,0.09,0.19,0.14,0.28
										c0.05,0.09,0.05,0.14,0.09,0.14l0,0l0,0c0.05,0,0.09-0.32,0.09-0.37c0.09-0.42,0.23-0.83,0.46-1.25
										c0.56-1.02,1.35-1.81,1.44-2.74c0.05-0.65-0.19-1.35-0.7-1.76c-0.28-0.23-0.6-0.37-0.93-0.28
										c-0.42,0.05-0.74,0.37-0.93,0.79c-0.09,0.23-0.14,0.46-0.19,0.74c-0.28-0.74-0.88-1.21-1.48-1.11
										c-0.32,0.05-0.6,0.28-0.83,0.56c-0.32,0.56-0.37,1.3-0.14,1.9C9.65,10.85,10.67,11.36,11.5,12.15z"/>
								</g>
								<g>
									<path class="st41" d="M11.04,5.71c0.19,0.32,0.32,0.74,0.42,1.16c0,0.09,0.05,0.23,0.05,0.32s0.05,0.14,0.05,0.14l0,0l0,0
										c0.05,0,0.19-0.28,0.19-0.32c0.23-0.37,0.51-0.74,0.83-1.02c0.83-0.79,1.86-1.25,2.23-2.13c0.28-0.6,0.23-1.35-0.09-1.9
										c-0.19-0.32-0.46-0.51-0.79-0.6C13.5,1.3,13.13,1.44,12.8,1.76c-0.19,0.19-0.28,0.37-0.42,0.65
										c-0.05-0.79-0.46-1.44-1.07-1.53c-0.32-0.05-0.65,0.05-0.97,0.28C9.83,1.58,9.55,2.27,9.6,2.92
										C9.74,3.9,10.53,4.68,11.04,5.71z"/>
								</g>
								<g>
									<path class="st41" d="M12.06-0.46c0.19,0.32,0.32,0.74,0.42,1.16c0,0.09,0.05,0.23,0.05,0.32c0,0.09,0.05,0.14,0.05,0.14
										l0,0l0,0c0.05,0,0.19-0.28,0.19-0.32c0.23-0.37,0.51-0.74,0.83-1.02c0.83-0.79,1.86-1.25,2.23-2.13
										c0.28-0.6,0.23-1.35-0.09-1.9c-0.19-0.32-0.46-0.51-0.79-0.6c-0.42-0.05-0.79,0.09-1.11,0.42
										c-0.19,0.19-0.28,0.37-0.42,0.65c-0.05-0.79-0.46-1.44-1.07-1.53c-0.32-0.05-0.65,0.05-0.97,0.28
										c-0.51,0.42-0.79,1.11-0.74,1.76C10.71-2.27,11.5-1.53,12.06-0.46z"/>
								</g>
								<g>
									<path class="st41" d="M13.08-6.96c0.05,0.37,0.09,0.79,0.05,1.21c0,0.09-0.05,0.23-0.05,0.32s0,0.14,0,0.14l0,0l0,0
										c0.05,0.05,0.23-0.19,0.28-0.23c0.32-0.28,0.7-0.56,1.11-0.74c1.07-0.51,2.13-0.65,2.78-1.35
										c0.42-0.46,0.65-1.21,0.51-1.81c-0.09-0.37-0.28-0.65-0.6-0.79c-0.37-0.19-0.79-0.14-1.21,0.05
										c-0.23,0.09-0.42,0.28-0.56,0.46c0.23-0.74,0-1.48-0.56-1.76c-0.28-0.14-0.65-0.14-0.97-0.05
										c-0.6,0.23-1.07,0.83-1.25,1.44C12.38-9.09,12.89-8.12,13.08-6.96z"/>
								</g>
								<g>
									<path class="st41" d="M15.96-12.52c0.05,0.37,0.09,0.79,0.05,1.21c0,0.09-0.05,0.23-0.05,0.32c0,0.09,0,0.14,0,0.14l0,0
										l0,0c0.05,0.05,0.23-0.19,0.28-0.23c0.32-0.28,0.7-0.56,1.11-0.74c1.07-0.51,2.13-0.65,2.78-1.35
										c0.42-0.46,0.65-1.21,0.51-1.81c-0.09-0.37-0.28-0.65-0.6-0.79c-0.37-0.19-0.79-0.14-1.21,0.05
										c-0.23,0.09-0.42,0.28-0.56,0.46c0.23-0.74,0-1.48-0.56-1.76c-0.28-0.14-0.65-0.14-0.97-0.05
										c-0.6,0.23-1.07,0.83-1.25,1.44C15.26-14.66,15.77-13.68,15.96-12.52z"/>
								</g>
								<g>
									<path class="st41" d="M18.69-18.32c0,0.37-0.05,0.79-0.14,1.21c-0.05,0.09-0.05,0.19-0.09,0.32
										c-0.05,0.09-0.05,0.14-0.05,0.14l0,0l0,0c0.05,0.05,0.28-0.14,0.32-0.19c0.37-0.23,0.79-0.42,1.21-0.56
										c1.11-0.32,2.23-0.28,2.97-0.93c0.51-0.42,0.83-1.11,0.79-1.72c-0.05-0.37-0.19-0.7-0.46-0.88
										c-0.32-0.23-0.79-0.28-1.21-0.14c-0.23,0.09-0.46,0.23-0.65,0.37c0.32-0.7,0.23-1.48-0.28-1.86
										c-0.28-0.19-0.6-0.28-0.97-0.19c-0.65,0.14-1.21,0.65-1.44,1.25C18.32-20.55,18.69-19.53,18.69-18.32z"/>
								</g>
								<g>
									<path class="st41" d="M23.01-23.05c-0.05,0.37-0.14,0.79-0.32,1.16c-0.05,0.09-0.09,0.19-0.14,0.28s-0.05,0.14-0.05,0.14
										l0,0l0,0c0.05,0.05,0.28-0.14,0.32-0.14c0.42-0.19,0.83-0.32,1.25-0.37c1.16-0.14,2.23,0.05,3.06-0.42
										c0.56-0.32,0.97-0.97,1.02-1.58c0.05-0.37-0.09-0.7-0.32-0.93c-0.28-0.28-0.74-0.37-1.16-0.28
										c-0.23,0.05-0.46,0.14-0.7,0.28c0.42-0.65,0.46-1.44,0-1.86c-0.23-0.23-0.56-0.37-0.93-0.32
										c-0.65,0.05-1.25,0.46-1.62,0.97C23.01-25.28,23.19-24.21,23.01-23.05z"/>
								</g>
								<g>
									<path class="st41" d="M27.46-27.5c-0.05,0.37-0.14,0.79-0.32,1.16c-0.05,0.09-0.09,0.19-0.14,0.28
										c-0.05,0.09-0.05,0.14-0.05,0.14l0,0l0,0c0.05,0.05,0.28-0.14,0.32-0.14c0.42-0.19,0.83-0.32,1.25-0.37
										c1.16-0.14,2.23,0.05,3.06-0.42c0.56-0.32,0.97-0.97,1.02-1.58c0.05-0.37-0.09-0.7-0.32-0.93
										c-0.28-0.28-0.74-0.37-1.16-0.28c-0.23,0.05-0.46,0.14-0.7,0.28c0.42-0.65,0.46-1.44,0-1.86
										c-0.23-0.23-0.56-0.37-0.93-0.32c-0.65,0.05-1.25,0.46-1.62,0.97C27.46-29.73,27.64-28.62,27.46-27.5z"/>
								</g>
								<g>
									<path class="st41" d="M32.7-31.22c-0.19,0.32-0.37,0.7-0.7,1.02c-0.09,0.09-0.14,0.14-0.23,0.23
										c-0.05,0.05-0.09,0.09-0.09,0.14l0,0l0,0c0.05,0.05,0.32-0.05,0.37-0.05c0.46-0.05,0.88-0.05,1.35,0.05
										c1.16,0.19,2.13,0.74,3.06,0.51c0.65-0.14,1.21-0.6,1.44-1.21c0.14-0.32,0.14-0.7,0-0.97c-0.19-0.37-0.56-0.6-1.02-0.65
										c-0.23-0.05-0.51,0-0.74,0.05c0.6-0.51,0.88-1.21,0.6-1.76c-0.14-0.32-0.46-0.51-0.79-0.6c-0.6-0.14-1.35,0.05-1.86,0.46
										C33.4-33.4,33.21-32.28,32.7-31.22z"/>
								</g>
								<g>
									<path class="st41" d="M38.31-34.14c-0.19,0.32-0.37,0.7-0.7,1.02c-0.09,0.09-0.14,0.14-0.23,0.23
										c-0.05,0.05-0.09,0.09-0.09,0.14l0,0l0,0c0.05,0.05,0.32-0.05,0.37-0.05c0.46-0.05,0.88-0.05,1.35,0.05
										c1.16,0.19,2.13,0.74,3.06,0.51c0.65-0.14,1.21-0.6,1.44-1.21c0.14-0.32,0.14-0.7,0-0.97c-0.19-0.37-0.56-0.6-1.02-0.65
										c-0.23-0.05-0.51,0-0.74,0.05c0.6-0.51,0.88-1.21,0.6-1.76c-0.14-0.32-0.46-0.51-0.79-0.6c-0.6-0.14-1.35,0.05-1.86,0.46
										C38.96-36.27,38.82-35.16,38.31-34.14z"/>
								</g>
								<g>
									<path class="st41" d="M44.29-36.5c-0.28,0.28-0.6,0.56-0.97,0.74c-0.09,0.05-0.19,0.09-0.28,0.14
										c-0.09,0.05-0.14,0.05-0.14,0.09l0,0l0,0c0,0.05,0.28,0.09,0.37,0.09c0.42,0.09,0.83,0.23,1.25,0.46
										c1.02,0.56,1.81,1.35,2.74,1.44c0.65,0.05,1.35-0.19,1.76-0.7c0.23-0.28,0.37-0.6,0.28-0.93
										c-0.05-0.42-0.37-0.74-0.79-0.93c-0.23-0.09-0.46-0.14-0.74-0.19c0.74-0.28,1.21-0.88,1.11-1.48
										c-0.05-0.32-0.28-0.6-0.56-0.83c-0.56-0.32-1.3-0.37-1.9-0.14C45.59-38.31,45.13-37.34,44.29-36.5z"/>
								</g>
								<g>
									<path class="st41" d="M50.51-37.48c-0.28,0.28-0.6,0.56-0.97,0.74c-0.09,0.05-0.19,0.09-0.28,0.14
										c-0.09,0.05-0.14,0.05-0.14,0.09l0,0l0,0c0,0.05,0.28,0.09,0.37,0.09c0.42,0.09,0.83,0.23,1.25,0.46
										c1.02,0.56,1.81,1.35,2.74,1.44c0.65,0.05,1.35-0.19,1.76-0.7c0.23-0.28,0.37-0.6,0.28-0.93
										c-0.05-0.42-0.37-0.74-0.79-0.93c-0.23-0.09-0.46-0.14-0.74-0.19c0.74-0.28,1.21-0.88,1.11-1.48
										c-0.05-0.32-0.28-0.6-0.56-0.83c-0.56-0.32-1.3-0.37-1.9-0.14C51.81-39.33,51.35-38.31,50.51-37.48z"/>
								</g>
								<g>
									<path class="st41" d="M56.96-38.5c-0.32,0.19-0.74,0.32-1.16,0.42c-0.09,0-0.23,0.05-0.32,0.05s-0.14,0.05-0.14,0.05l0,0
										l0,0c0,0.05,0.28,0.19,0.32,0.19c0.37,0.23,0.74,0.51,1.02,0.83c0.79,0.83,1.25,1.86,2.13,2.23
										c0.6,0.28,1.35,0.23,1.9-0.09c0.32-0.19,0.51-0.46,0.6-0.79c0.05-0.42-0.09-0.79-0.42-1.11c-0.19-0.19-0.37-0.28-0.65-0.42
										c0.79-0.05,1.44-0.46,1.53-1.07c0.05-0.32-0.05-0.65-0.28-0.97c-0.42-0.51-1.11-0.79-1.76-0.74
										C58.77-39.8,58.02-39.01,56.96-38.5z"/>
								</g>
								<g>
									<path class="st41" d="M63.17-37.48c-0.32,0.19-0.74,0.32-1.16,0.42c-0.09,0-0.23,0.05-0.32,0.05s-0.14,0.05-0.14,0.05l0,0
										l0,0c0,0.05,0.28,0.19,0.32,0.19c0.37,0.23,0.74,0.51,1.02,0.83c0.79,0.83,1.25,1.86,2.13,2.23
										c0.6,0.28,1.35,0.23,1.9-0.09c0.32-0.19,0.51-0.46,0.6-0.79c0.05-0.42-0.09-0.79-0.42-1.11c-0.19-0.19-0.37-0.28-0.65-0.42
										c0.79-0.05,1.44-0.46,1.53-1.07c0.05-0.32-0.05-0.65-0.28-0.97c-0.42-0.51-1.11-0.79-1.76-0.74
										C64.98-38.82,64.19-38.03,63.17-37.48z"/>
								</g>
								<g>
									<path class="st41" d="M69.39-36.5c-0.32,0.19-0.74,0.32-1.16,0.42c-0.09,0-0.23,0.05-0.32,0.05s-0.14,0.05-0.14,0.05l0,0
										l0,0c0,0.05,0.28,0.19,0.32,0.19c0.37,0.23,0.74,0.51,1.02,0.83c0.79,0.83,1.25,1.86,2.13,2.23
										c0.6,0.28,1.35,0.23,1.9-0.09c0.32-0.19,0.51-0.46,0.6-0.79c0.05-0.42-0.09-0.79-0.42-1.11c-0.19-0.19-0.37-0.28-0.65-0.42
										c0.79-0.05,1.44-0.46,1.53-1.07c0.05-0.32-0.05-0.65-0.28-0.97c-0.42-0.51-1.11-0.79-1.76-0.74
										C71.2-37.8,70.41-37.01,69.39-36.5z"/>
								</g>
								<g>
									<path class="st41" d="M75.37-34.09C75-34.04,74.58-34,74.17-34.04c-0.09,0-0.23-0.05-0.32-0.05s-0.14,0-0.14,0l0,0l0,0
										c-0.05,0.05,0.19,0.23,0.23,0.28c0.28,0.32,0.56,0.7,0.74,1.11c0.51,1.07,0.65,2.13,1.35,2.78
										c0.46,0.42,1.21,0.65,1.81,0.51c0.37-0.09,0.65-0.28,0.79-0.6c0.19-0.37,0.14-0.79-0.05-1.21
										c-0.09-0.23-0.28-0.42-0.46-0.56c0.74,0.23,1.48,0,1.76-0.56c0.14-0.32,0.14-0.65,0.05-0.97c-0.23-0.6-0.83-1.07-1.44-1.25
										C77.5-34.79,76.53-34.28,75.37-34.09z"/>
								</g>
								<g>
									<path class="st41" d="M80.94-31.22c-0.37,0.05-0.79,0.09-1.21,0.05c-0.09,0-0.23-0.05-0.32-0.05s-0.14,0-0.14,0l0,0l0,0
										c-0.05,0.05,0.19,0.23,0.23,0.28c0.28,0.32,0.56,0.7,0.74,1.11c0.51,1.07,0.65,2.13,1.35,2.78
										c0.46,0.42,1.21,0.65,1.81,0.51c0.37-0.09,0.65-0.28,0.79-0.6c0.19-0.37,0.14-0.79-0.05-1.21
										c-0.09-0.23-0.28-0.42-0.46-0.56c0.74,0.23,1.48,0,1.76-0.56c0.14-0.32,0.14-0.65,0.05-0.97c-0.23-0.6-0.83-1.07-1.44-1.25
										C83.07-31.91,82.1-31.4,80.94-31.22z"/>
								</g>
								<g>
									<path class="st41" d="M86.18-27.41c-0.37-0.05-0.79-0.14-1.16-0.32c-0.09-0.05-0.19-0.09-0.28-0.14
										c-0.09-0.05-0.14-0.05-0.14-0.05l0,0l0,0c-0.05,0.05,0.14,0.28,0.14,0.32c0.19,0.42,0.32,0.83,0.37,1.25
										c0.14,1.16-0.05,2.23,0.42,3.06c0.32,0.56,0.97,0.97,1.58,1.02c0.37,0.05,0.7-0.09,0.93-0.32
										c0.28-0.28,0.37-0.74,0.28-1.16c-0.05-0.23-0.14-0.46-0.28-0.7c0.65,0.42,1.44,0.46,1.86,0c0.23-0.23,0.37-0.56,0.32-0.93
										c-0.05-0.65-0.46-1.25-0.97-1.62C88.45-27.46,87.34-27.23,86.18-27.41z"/>
								</g>
								<g>
									<path class="st41" d="M90.63-23.01c-0.37-0.05-0.79-0.14-1.16-0.32c-0.09-0.05-0.19-0.09-0.28-0.14
										c-0.09-0.05-0.14-0.05-0.14-0.05l0,0l0,0c-0.05,0.05,0.14,0.28,0.14,0.32c0.19,0.42,0.32,0.83,0.37,1.25
										c0.14,1.16-0.05,2.23,0.42,3.06c0.32,0.56,0.97,0.97,1.58,1.02c0.37,0.05,0.7-0.09,0.93-0.32
										c0.28-0.28,0.37-0.74,0.28-1.16c-0.05-0.23-0.14-0.46-0.28-0.7c0.65,0.42,1.44,0.46,1.86,0c0.23-0.23,0.37-0.56,0.32-0.93
										c-0.05-0.65-0.46-1.25-0.97-1.62C92.86-23.01,91.79-22.82,90.63-23.01z"/>
								</g>
								<g>
									<path class="st41" d="M94.81-18.04c-0.32-0.19-0.7-0.37-1.02-0.7c-0.09-0.09-0.14-0.14-0.23-0.23
										c-0.05-0.05-0.09-0.09-0.14-0.09l0,0l0,0c-0.05,0.05,0.05,0.32,0.05,0.37c0.05,0.46,0.05,0.88-0.05,1.35
										c-0.19,1.16-0.74,2.13-0.51,3.06c0.14,0.65,0.6,1.21,1.21,1.44c0.32,0.14,0.7,0.14,0.97,0c0.37-0.19,0.6-0.56,0.65-1.02
										c0.05-0.23,0-0.51-0.05-0.74c0.51,0.6,1.21,0.88,1.76,0.6c0.32-0.14,0.51-0.46,0.6-0.79c0.14-0.6-0.05-1.35-0.46-1.86
										C96.94-17.35,95.83-17.53,94.81-18.04z"/>
								</g>
								<g>
									<path class="st41" d="M97.68-12.48c-0.32-0.19-0.7-0.37-1.02-0.7c-0.09-0.09-0.14-0.14-0.23-0.23
										c-0.05-0.05-0.09-0.09-0.14-0.09l0,0l0,0c-0.05,0.05,0.05,0.32,0.05,0.37c0.05,0.46,0.05,0.88-0.05,1.35
										c-0.19,1.16-0.74,2.13-0.51,3.06c0.14,0.65,0.6,1.21,1.21,1.44c0.32,0.14,0.7,0.14,0.97,0c0.37-0.19,0.6-0.56,0.65-1.02
										c0.05-0.23,0-0.51-0.05-0.74c0.51,0.6,1.21,0.88,1.76,0.6c0.32-0.14,0.51-0.46,0.6-0.79c0.14-0.6-0.05-1.35-0.46-1.86
										C99.81-11.78,98.75-11.92,97.68-12.48z"/>
								</g>
								<g>
									<path class="st41" d="M100.56-6.59c-0.28-0.28-0.56-0.6-0.74-0.97c-0.05-0.09-0.09-0.19-0.14-0.28s-0.05-0.14-0.09-0.14
										l0,0l0,0c-0.05,0-0.09,0.28-0.09,0.37c-0.09,0.42-0.23,0.83-0.46,1.25c-0.56,1.02-1.35,1.81-1.44,2.74
										c-0.05,0.65,0.19,1.35,0.7,1.76c0.28,0.23,0.6,0.37,0.93,0.28c0.42-0.05,0.74-0.37,0.93-0.79
										c0.09-0.23,0.19-0.46,0.19-0.74c0.28,0.74,0.88,1.21,1.48,1.11c0.32-0.05,0.6-0.28,0.83-0.56c0.32-0.56,0.37-1.3,0.14-1.9
										C102.37-5.29,101.39-5.8,100.56-6.59z"/>
								</g>
								<g>
									<path class="st41" d="M101.58-0.42c-0.28-0.28-0.56-0.6-0.74-0.97c-0.05-0.09-0.09-0.19-0.14-0.28
										c-0.05-0.09-0.05-0.14-0.09-0.14l0,0l0,0c-0.05,0-0.09,0.32-0.09,0.37c-0.09,0.42-0.23,0.83-0.46,1.25
										c-0.56,1.02-1.35,1.81-1.44,2.74c-0.05,0.65,0.19,1.35,0.7,1.76c0.28,0.23,0.6,0.37,0.93,0.28
										c0.42-0.05,0.74-0.37,0.93-0.79c0.09-0.23,0.14-0.46,0.19-0.74c0.28,0.74,0.88,1.21,1.48,1.11
										c0.32-0.05,0.6-0.28,0.83-0.56c0.32-0.56,0.37-1.3,0.14-1.9C103.39,0.88,102.41,0.42,101.58-0.42z"/>
								</g>
								<g>
									<path class="st41" d="M102.55,5.8c-0.28-0.28-0.56-0.6-0.74-0.97c-0.05-0.09-0.09-0.19-0.14-0.28
										c-0.05-0.09-0.05-0.14-0.09-0.14l0,0l0,0c-0.05,0-0.09,0.32-0.09,0.37c-0.09,0.42-0.23,0.83-0.46,1.25
										c-0.56,1.02-1.35,1.81-1.44,2.74c-0.05,0.65,0.19,1.35,0.7,1.76c0.28,0.23,0.6,0.37,0.93,0.28
										c0.42-0.05,0.74-0.37,0.93-0.79c0.09-0.23,0.14-0.46,0.19-0.74c0.28,0.74,0.88,1.21,1.48,1.11
										c0.32-0.05,0.6-0.28,0.83-0.56c0.32-0.56,0.37-1.3,0.14-1.9C104.41,7.1,103.39,6.63,102.55,5.8z"/>
								</g>
								<g class="st42">
									<g>
										<path class="st43" d="M28.66,6.08c-0.19-0.37-0.28-0.74-0.37-1.16c0-0.09-0.05-0.23-0.05-0.32s0-0.14-0.05-0.14l0,0l0,0
											c-0.05,0-0.19,0.28-0.19,0.32c-0.23,0.37-0.51,0.7-0.88,1.02c-0.88,0.79-1.9,1.21-2.32,2.09
											c-0.28,0.56-0.28,1.35,0.05,1.9c0.19,0.32,0.46,0.56,0.79,0.6c0.42,0.09,0.83-0.09,1.16-0.42
											c0.19-0.19,0.32-0.37,0.42-0.6c0,0.79,0.42,1.44,1.02,1.58c0.32,0.09,0.7-0.05,0.97-0.23c0.51-0.37,0.83-1.07,0.79-1.72
											C29.92,7.98,29.13,7.14,28.66,6.08z"/>
									</g>
									<g>
										<path class="st43" d="M29.92-0.05c-0.19-0.37-0.28-0.74-0.37-1.16c0-0.09-0.05-0.23-0.05-0.32s0-0.14-0.05-0.14l0,0l0,0
											c-0.05,0-0.19,0.28-0.19,0.32c-0.23,0.37-0.51,0.7-0.88,1.02c-0.88,0.79-1.9,1.21-2.32,2.09
											c-0.28,0.56-0.28,1.35,0.05,1.9c0.19,0.32,0.46,0.56,0.79,0.6c0.42,0.09,0.83-0.09,1.16-0.42
											c0.19-0.19,0.32-0.37,0.42-0.6c0,0.79,0.42,1.44,1.02,1.58c0.32,0.09,0.7-0.05,0.97-0.23c0.51-0.37,0.83-1.07,0.79-1.72
											C31.12,1.81,30.38,1.02,29.92-0.05z"/>
									</g>
									<g>
										<path class="st43" d="M31.96-5.57c0-0.37,0-0.79,0.09-1.21C32.1-6.86,32.1-7,32.14-7.1c0.05-0.09,0.05-0.14,0-0.14l0,0
											l0,0c-0.05-0.05-0.28,0.19-0.32,0.19c-0.37,0.28-0.74,0.46-1.16,0.6c-1.11,0.37-2.23,0.37-2.92,1.02
											c-0.46,0.42-0.79,1.11-0.7,1.76c0.05,0.37,0.19,0.7,0.51,0.88c0.32,0.23,0.79,0.23,1.21,0.09
											c0.23-0.09,0.42-0.23,0.65-0.42c-0.28,0.7-0.19,1.48,0.32,1.86c0.28,0.19,0.65,0.23,0.97,0.14c0.6-0.14,1.16-0.7,1.39-1.3
											C32.37-3.34,32-4.36,31.96-5.57z"/>
									</g>
									<g>
										<path class="st43" d="M35.48-10.76c0-0.37,0-0.79,0.09-1.21c0.05-0.09,0.05-0.23,0.09-0.32c0.05-0.09,0.05-0.14,0-0.14
											l0,0l0,0c-0.05-0.05-0.28,0.19-0.32,0.19c-0.37,0.28-0.74,0.46-1.16,0.6c-1.11,0.37-2.23,0.37-2.92,1.02
											c-0.46,0.42-0.79,1.11-0.7,1.76c0.05,0.37,0.19,0.7,0.51,0.88c0.32,0.23,0.79,0.23,1.21,0.09
											c0.23-0.09,0.42-0.23,0.65-0.42c-0.28,0.7-0.19,1.48,0.32,1.86c0.28,0.19,0.65,0.23,0.97,0.14c0.6-0.14,1.16-0.7,1.39-1.3
											C35.9-8.53,35.53-9.6,35.48-10.76z"/>
									</g>
									<g>
										<path class="st43" d="M39.8-14.7c0.14-0.37,0.32-0.74,0.56-1.07c0.05-0.09,0.14-0.19,0.19-0.28
											c0.05-0.09,0.09-0.09,0.09-0.14l0,0l0,0c-0.05-0.05-0.32,0.05-0.37,0.09c-0.42,0.09-0.88,0.14-1.3,0.09
											c-1.16-0.05-2.18-0.46-3.11-0.14c-0.6,0.23-1.16,0.74-1.3,1.35c-0.09,0.37-0.05,0.7,0.14,0.97
											c0.23,0.32,0.65,0.51,1.07,0.51c0.23,0,0.51-0.05,0.74-0.14c-0.56,0.56-0.74,1.3-0.37,1.81c0.19,0.28,0.51,0.46,0.88,0.51
											c0.65,0.09,1.35-0.19,1.76-0.65C39.38-12.48,39.42-13.59,39.8-14.7z"/>
									</g>
									<g>
										<path class="st43" d="M45.04-18.18c0.14-0.37,0.32-0.74,0.56-1.07c0.05-0.09,0.14-0.19,0.19-0.28
											c0.05-0.09,0.09-0.09,0.09-0.14l0,0l0,0c-0.05-0.05-0.32,0.05-0.37,0.09c-0.42,0.09-0.88,0.14-1.3,0.09
											c-1.16-0.05-2.18-0.46-3.11-0.14c-0.6,0.23-1.16,0.74-1.3,1.35c-0.09,0.37-0.05,0.7,0.14,0.97
											c0.23,0.32,0.65,0.51,1.07,0.51c0.23,0,0.51-0.05,0.74-0.14c-0.56,0.56-0.74,1.3-0.37,1.81c0.19,0.28,0.51,0.46,0.88,0.51
											c0.65,0.09,1.35-0.19,1.76-0.65C44.62-16,44.62-17.12,45.04-18.18z"/>
									</g>
									<g>
										<path class="st43" d="M50.74-19.67c0.28-0.28,0.56-0.56,0.93-0.79c0.09-0.05,0.19-0.09,0.28-0.19
											c0.09-0.05,0.14-0.09,0.14-0.09l0,0l0,0c0-0.05-0.32-0.05-0.37-0.05c-0.42-0.05-0.88-0.23-1.25-0.42
											c-1.07-0.51-1.86-1.3-2.78-1.35c-0.65-0.05-1.35,0.23-1.72,0.74c-0.23,0.28-0.32,0.6-0.28,0.97
											c0.09,0.42,0.37,0.74,0.79,0.88c0.23,0.09,0.46,0.14,0.74,0.14c-0.7,0.32-1.16,0.93-1.07,1.53
											c0.05,0.32,0.28,0.6,0.6,0.79c0.56,0.32,1.3,0.32,1.9,0.05C49.54-17.81,49.95-18.83,50.74-19.67z"/>
									</g>
									<g>
										<path class="st43" d="M56.91-20.92c0.28-0.28,0.56-0.56,0.93-0.79c0.09-0.05,0.19-0.09,0.28-0.19
											c0.09-0.05,0.14-0.09,0.09-0.09l0,0l0,0c0-0.05-0.32-0.05-0.37-0.05c-0.42-0.05-0.88-0.23-1.25-0.42
											c-1.07-0.51-1.86-1.3-2.78-1.35c-0.65-0.05-1.35,0.23-1.72,0.74c-0.23,0.28-0.32,0.6-0.28,0.97
											c0.09,0.42,0.37,0.74,0.79,0.88c0.23,0.09,0.46,0.14,0.74,0.14c-0.7,0.32-1.16,0.93-1.07,1.53
											c0.05,0.32,0.28,0.6,0.6,0.79c0.56,0.32,1.3,0.32,1.9,0.05C55.66-19.06,56.12-20.04,56.91-20.92z"/>
									</g>
									<g>
										<path class="st43" d="M62.76-19.71c0.37-0.19,0.74-0.28,1.16-0.37c0.09,0,0.23-0.05,0.32-0.05s0.14,0,0.14-0.05l0,0l0,0
											c0-0.05-0.28-0.19-0.32-0.19c-0.37-0.23-0.7-0.51-1.02-0.88c-0.79-0.88-1.21-1.9-2.09-2.32c-0.56-0.28-1.35-0.28-1.9,0.05
											c-0.32,0.19-0.56,0.46-0.6,0.79c-0.09,0.42,0.09,0.83,0.42,1.16c0.19,0.19,0.37,0.32,0.6,0.42
											c-0.79,0-1.44,0.42-1.58,1.02c-0.09,0.32,0.05,0.7,0.23,0.97c0.37,0.51,1.07,0.83,1.72,0.79
											C60.9-18.46,61.69-19.2,62.76-19.71z"/>
									</g>
									<g>
										<path class="st43" d="M68.92-18.46c0.37-0.19,0.74-0.28,1.16-0.37c0.09,0,0.23-0.05,0.32-0.05s0.14,0,0.14-0.05l0,0l0,0
											c0-0.05-0.28-0.19-0.32-0.19c-0.37-0.23-0.7-0.51-1.02-0.88c-0.79-0.88-1.21-1.9-2.09-2.32c-0.56-0.28-1.35-0.28-1.9,0.05
											c-0.32,0.19-0.56,0.46-0.6,0.79c-0.09,0.42,0.09,0.83,0.42,1.16c0.19,0.19,0.37,0.32,0.6,0.42
											c-0.79,0-1.44,0.42-1.58,1.02c-0.09,0.32,0.05,0.7,0.23,0.97c0.37,0.51,1.07,0.83,1.72,0.79
											C67.02-17.21,67.86-17.95,68.92-18.46z"/>
									</g>
									<g>
										<path class="st43" d="M73.7-14.75c0.37,0,0.79,0,1.21,0.09c0.09,0.05,0.23,0.05,0.32,0.09c0.09,0.05,0.14,0.05,0.14,0l0,0
											l0,0c0.05-0.05-0.19-0.28-0.19-0.32c-0.28-0.37-0.46-0.74-0.6-1.16c-0.37-1.11-0.37-2.23-1.02-2.92
											c-0.42-0.46-1.11-0.79-1.76-0.7c-0.37,0.05-0.7,0.19-0.88,0.51c-0.23,0.32-0.23,0.79-0.09,1.21
											c0.09,0.23,0.23,0.42,0.42,0.65c-0.7-0.28-1.48-0.19-1.86,0.32c-0.19,0.28-0.23,0.65-0.14,0.97
											c0.14,0.6,0.7,1.16,1.3,1.39C71.47-14.29,72.54-14.7,73.7-14.75z"/>
									</g>
									<g>
										<path class="st43" d="M78.06-10.85c0.37,0.14,0.74,0.32,1.07,0.56c0.09,0.05,0.19,0.14,0.28,0.19
											c0.09,0.05,0.09,0.09,0.14,0.09l0,0l0,0c0.05-0.05-0.05-0.32-0.09-0.37c-0.09-0.42-0.14-0.88-0.09-1.3
											c0.05-1.16,0.46-2.18,0.14-3.11c-0.23-0.6-0.74-1.16-1.35-1.3c-0.37-0.09-0.7-0.05-0.97,0.14
											c-0.32,0.23-0.51,0.65-0.51,1.07c0,0.23,0.05,0.51,0.14,0.74c-0.56-0.56-1.3-0.74-1.81-0.37
											c-0.28,0.19-0.46,0.51-0.51,0.88c-0.09,0.65,0.19,1.35,0.65,1.76C75.88-11.27,76.99-11.22,78.06-10.85z"/>
									</g>
									<g>
										<path class="st43" d="M81.59-5.61c0.37,0.14,0.74,0.32,1.07,0.56c0.09,0.05,0.19,0.14,0.28,0.19
											c0.09,0.05,0.09,0.09,0.14,0.09l0,0l0,0c0.05-0.05-0.05-0.32-0.09-0.37c-0.09-0.42-0.14-0.88-0.09-1.3
											c0.05-1.16,0.46-2.18,0.14-3.11c-0.23-0.6-0.74-1.16-1.35-1.3c-0.37-0.09-0.7-0.05-0.97,0.14
											c-0.32,0.23-0.51,0.65-0.51,1.07c0,0.23,0.05,0.51,0.14,0.74c-0.56-0.56-1.3-0.74-1.81-0.37
											c-0.28,0.19-0.46,0.51-0.51,0.88c-0.09,0.65,0.19,1.35,0.65,1.76C79.41-6.03,80.47-6.03,81.59-5.61z"/>
									</g>
									<g>
										<path class="st43" d="M83.67-0.19c0.28,0.28,0.56,0.56,0.79,0.93c0.05,0.09,0.09,0.19,0.19,0.28
											c0.05,0.09,0.09,0.14,0.09,0.09l0,0l0,0c0.05,0,0.05-0.32,0.05-0.37c0.05-0.46,0.23-0.88,0.42-1.25
											c0.51-1.07,1.3-1.86,1.35-2.78c0.05-0.65-0.23-1.35-0.74-1.72c-0.28-0.23-0.6-0.32-0.97-0.28
											c-0.42,0.09-0.74,0.37-0.88,0.79c-0.09,0.23-0.14,0.46-0.14,0.74c-0.32-0.7-0.93-1.16-1.53-1.07
											c-0.32,0.05-0.6,0.28-0.79,0.6c-0.32,0.56-0.32,1.3-0.05,1.9C81.82-1.39,82.79-0.97,83.67-0.19z"/>
									</g>
									<g>
										<path class="st43" d="M84.93,5.98c0.28,0.28,0.56,0.56,0.79,0.93C85.76,7,85.81,7.1,85.9,7.19
											c0.05,0.09,0.09,0.14,0.09,0.09l0,0l0,0c0.05,0,0.05-0.32,0.05-0.37c0.05-0.46,0.23-0.88,0.42-1.25
											c0.51-1.07,1.3-1.86,1.35-2.78c0.05-0.65-0.23-1.35-0.74-1.72c-0.28-0.23-0.6-0.32-0.97-0.28
											c-0.42,0.09-0.74,0.37-0.88,0.79c-0.09,0.23-0.14,0.46-0.14,0.74c-0.32-0.7-0.93-1.16-1.53-1.07
											c-0.32,0.05-0.6,0.28-0.79,0.6c-0.32,0.56-0.32,1.3-0.05,1.9C83.07,4.78,84.04,5.19,84.93,5.98z"/>
									</g>
									<g>
										<path class="st43" d="M84.37,11.83c0.19,0.37,0.28,0.74,0.37,1.16c0,0.09,0.05,0.23,0.05,0.32c0,0.09,0,0.14,0.05,0.14
											l0,0l0,0c0.05,0,0.19-0.28,0.19-0.32c0.23-0.37,0.51-0.7,0.88-1.02c0.88-0.79,1.9-1.21,2.32-2.09
											c0.28-0.56,0.28-1.35-0.05-1.9c-0.19-0.32-0.46-0.56-0.79-0.6c-0.42-0.09-0.83,0.09-1.16,0.42
											c-0.19,0.19-0.32,0.37-0.42,0.6c0-0.79-0.42-1.44-1.02-1.58c-0.32-0.09-0.7,0.05-0.97,0.23
											c-0.51,0.37-0.83,1.07-0.79,1.72C83.12,9.97,83.86,10.76,84.37,11.83z"/>
									</g>
									<g>
										<path class="st43" d="M83.12,18c0.19,0.37,0.28,0.74,0.37,1.16c0,0.09,0.05,0.23,0.05,0.32s0,0.14,0.05,0.14l0,0l0,0
											c0.05,0,0.19-0.28,0.19-0.32c0.23-0.37,0.51-0.7,0.88-1.02c0.88-0.79,1.9-1.21,2.32-2.09c0.28-0.56,0.28-1.35-0.05-1.9
											c-0.19-0.32-0.46-0.56-0.79-0.6c-0.42-0.09-0.83,0.09-1.16,0.42c-0.19,0.19-0.32,0.37-0.42,0.6
											c0-0.79-0.42-1.44-1.02-1.58c-0.32-0.09-0.7,0.05-0.97,0.23c-0.51,0.37-0.83,1.07-0.79,1.72
											C81.86,16.14,82.65,16.93,83.12,18z"/>
									</g>
									<g>
										<path class="st43" d="M80.01,23.05c0,0.37,0,0.79-0.09,1.21c-0.05,0.09-0.05,0.23-0.09,0.32c-0.05,0.09-0.05,0.14,0,0.14
											l0,0l0,0c0.05,0.05,0.28-0.19,0.32-0.19c0.37-0.28,0.74-0.46,1.16-0.6c1.11-0.37,2.23-0.37,2.92-1.02
											c0.46-0.42,0.79-1.11,0.7-1.76c-0.05-0.37-0.19-0.7-0.51-0.88c-0.32-0.23-0.79-0.23-1.21-0.09
											c-0.23,0.09-0.42,0.23-0.65,0.42c0.28-0.7,0.19-1.48-0.32-1.86c-0.28-0.19-0.65-0.23-0.97-0.14
											c-0.6,0.14-1.16,0.7-1.39,1.3C79.59,20.83,79.96,21.85,80.01,23.05z"/>
									</g>
									<g>
										<path class="st43" d="M76.48,28.25c0,0.37,0,0.79-0.09,1.21c-0.05,0.09-0.05,0.23-0.09,0.32c-0.05,0.09-0.05,0.14,0,0.14
											l0,0l0,0c0.05,0.05,0.28-0.19,0.32-0.19c0.37-0.28,0.74-0.46,1.16-0.6c1.11-0.37,2.23-0.37,2.92-1.02
											c0.46-0.42,0.79-1.11,0.7-1.76c-0.05-0.37-0.19-0.7-0.51-0.88c-0.32-0.23-0.79-0.23-1.21-0.09
											c-0.23,0.09-0.42,0.23-0.65,0.42c0.28-0.7,0.19-1.48-0.32-1.86c-0.28-0.19-0.65-0.23-0.97-0.14
											c-0.6,0.14-1.16,0.7-1.39,1.3C76.07,26.07,76.44,27.09,76.48,28.25z"/>
									</g>
									<g>
										<path class="st43" d="M71.34,31.4c-0.14,0.37-0.32,0.74-0.56,1.07c-0.05,0.09-0.14,0.19-0.19,0.28
											c-0.05,0.09-0.09,0.09-0.09,0.14l0,0l0,0c0.05,0.05,0.32-0.05,0.37-0.09c0.42-0.09,0.88-0.14,1.3-0.09
											c1.16,0.05,2.18,0.46,3.11,0.14c0.6-0.23,1.16-0.74,1.3-1.35c0.09-0.37,0.05-0.7-0.14-0.97
											c-0.23-0.32-0.65-0.51-1.07-0.51c-0.23,0-0.51,0.05-0.74,0.14c0.56-0.56,0.74-1.3,0.37-1.81
											c-0.19-0.28-0.51-0.46-0.88-0.51c-0.65-0.09-1.35,0.19-1.76,0.65C71.75,29.17,71.75,30.29,71.34,31.4z"/>
									</g>
									<g>
										<path class="st43" d="M66.14,34.09c-0.28,0.28-0.56,0.56-0.93,0.79c-0.09,0.05-0.19,0.09-0.28,0.19
											c-0.09,0.05-0.14,0.09-0.14,0.09l0,0l0,0c0,0.05,0.32,0.05,0.37,0.05c0.42,0.05,0.88,0.23,1.25,0.42
											c1.07,0.51,1.86,1.3,2.78,1.35c0.65,0.05,1.35-0.23,1.72-0.74c0.23-0.28,0.32-0.6,0.28-0.97
											c-0.09-0.42-0.37-0.74-0.79-0.88c-0.23-0.09-0.46-0.14-0.74-0.14c0.7-0.32,1.16-0.93,1.07-1.53
											c-0.05-0.32-0.28-0.6-0.6-0.79c-0.56-0.32-1.3-0.32-1.9-0.05C67.39,32.24,66.93,33.21,66.14,34.09z"/>
									</g>
									<g>
										<path class="st43" d="M59.97,35.34c-0.28,0.28-0.56,0.56-0.93,0.79c-0.09,0.05-0.19,0.09-0.28,0.19
											c-0.09,0.05-0.14,0.09-0.09,0.09l0,0l0,0c0,0.05,0.32,0.05,0.37,0.05c0.42,0.05,0.88,0.23,1.25,0.42
											c1.07,0.51,1.86,1.3,2.78,1.35c0.65,0.05,1.35-0.23,1.72-0.74c0.23-0.28,0.32-0.6,0.28-0.97
											c-0.09-0.42-0.37-0.74-0.79-0.88c-0.23-0.09-0.46-0.14-0.74-0.14c0.7-0.32,1.16-0.93,1.07-1.53
											c-0.05-0.32-0.28-0.6-0.6-0.79c-0.56-0.32-1.3-0.32-1.9-0.05C61.22,33.44,60.76,34.46,59.97,35.34z"/>
									</g>
									<g>
										<path class="st43" d="M54.13,35.44c-0.37,0.19-0.74,0.28-1.16,0.37c-0.09,0-0.23,0.05-0.32,0.05s-0.14,0-0.14,0.05l0,0
											l0,0c0,0.05,0.28,0.19,0.32,0.19c0.37,0.23,0.7,0.51,1.02,0.88c0.79,0.88,1.21,1.9,2.09,2.32
											c0.56,0.28,1.35,0.28,1.9-0.05c0.32-0.19,0.56-0.46,0.6-0.79c0.09-0.42-0.09-0.83-0.42-1.16
											c-0.19-0.19-0.37-0.32-0.6-0.42c0.79,0,1.44-0.42,1.58-1.02c0.09-0.32-0.05-0.7-0.23-0.97c-0.37-0.51-1.07-0.83-1.72-0.79
											C56.03,34.18,55.19,34.93,54.13,35.44z"/>
									</g>
									<g>
										<path class="st43" d="M48.01,34.18c-0.37,0.19-0.74,0.28-1.16,0.37c-0.09,0-0.23,0.05-0.32,0.05s-0.14,0-0.14,0.05l0,0
											l0,0c0,0.05,0.28,0.19,0.32,0.19c0.37,0.23,0.7,0.51,1.02,0.88c0.79,0.88,1.21,1.9,2.09,2.32
											c0.56,0.28,1.35,0.28,1.9-0.05c0.32-0.19,0.56-0.46,0.6-0.79c0.09-0.42-0.09-0.83-0.42-1.16
											c-0.19-0.19-0.37-0.32-0.6-0.42c0.79,0,1.44-0.42,1.58-1.02c0.09-0.32-0.05-0.7-0.23-0.97c-0.37-0.51-1.07-0.83-1.72-0.79
											C49.86,32.93,49.07,33.72,48.01,34.18z"/>
									</g>
									<g>
										<path class="st43" d="M42.72,31.68c-0.37,0-0.79,0-1.21-0.09c-0.09-0.05-0.23-0.05-0.32-0.09c-0.09-0.05-0.14-0.05-0.14,0
											l0,0l0,0c-0.05,0.05,0.19,0.28,0.19,0.32c0.28,0.37,0.46,0.74,0.6,1.16c0.37,1.11,0.37,2.23,1.02,2.92
											c0.42,0.46,1.11,0.79,1.76,0.7c0.37-0.05,0.7-0.19,0.88-0.51c0.23-0.32,0.23-0.79,0.09-1.21
											c-0.09-0.23-0.23-0.42-0.42-0.65c0.7,0.28,1.48,0.19,1.86-0.32c0.19-0.28,0.23-0.65,0.14-0.97
											c-0.14-0.6-0.7-1.16-1.3-1.39C44.9,31.26,43.88,31.63,42.72,31.68z"/>
									</g>
									<g>
										<path class="st43" d="M37.48,28.2c-0.37,0-0.79,0-1.21-0.09c-0.09-0.05-0.23-0.05-0.32-0.09c-0.09-0.05-0.14-0.05-0.14,0
											l0,0l0,0c-0.05,0.05,0.19,0.28,0.19,0.32c0.28,0.37,0.46,0.74,0.6,1.16c0.37,1.11,0.37,2.23,1.02,2.92
											c0.42,0.46,1.11,0.79,1.76,0.7c0.37-0.05,0.7-0.19,0.88-0.51c0.23-0.32,0.23-0.79,0.09-1.21
											c-0.09-0.23-0.23-0.42-0.42-0.65c0.7,0.28,1.48,0.19,1.86-0.32c0.19-0.28,0.23-0.65,0.14-0.97
											c-0.14-0.6-0.7-1.16-1.3-1.39C39.7,27.74,38.64,28.15,37.48,28.2z"/>
									</g>
									<g>
										<path class="st43" d="M33.91,23.52c-0.37-0.14-0.74-0.32-1.07-0.56c-0.09-0.05-0.19-0.14-0.28-0.19
											c-0.09-0.05-0.09-0.09-0.14-0.09l0,0l0,0c-0.05,0.05,0.05,0.32,0.09,0.37c0.09,0.42,0.14,0.88,0.09,1.3
											c-0.05,1.16-0.46,2.18-0.14,3.11c0.23,0.6,0.74,1.16,1.35,1.3c0.37,0.09,0.7,0.05,0.97-0.14
											c0.32-0.23,0.51-0.65,0.51-1.07c0-0.23-0.05-0.51-0.14-0.74c0.56,0.56,1.3,0.74,1.81,0.37c0.28-0.19,0.46-0.51,0.51-0.88
											c0.09-0.65-0.19-1.35-0.65-1.76C36.09,23.93,34.97,23.89,33.91,23.52z"/>
									</g>
									<g>
										<path class="st43" d="M30.38,18.27c-0.37-0.14-0.74-0.32-1.07-0.56c-0.09-0.05-0.19-0.14-0.28-0.19
											c-0.09-0.05-0.09-0.09-0.14-0.09l0,0l0,0c-0.05,0.05,0.05,0.32,0.09,0.37c0.09,0.42,0.14,0.88,0.09,1.3
											c-0.05,1.16-0.46,2.18-0.14,3.11c0.23,0.6,0.74,1.16,1.35,1.3c0.37,0.09,0.7,0.05,0.97-0.14
											c0.32-0.23,0.51-0.65,0.51-1.07c0-0.23-0.05-0.51-0.14-0.74c0.56,0.56,1.3,0.74,1.81,0.37c0.28-0.19,0.46-0.51,0.51-0.88
											c0.09-0.65-0.19-1.35-0.65-1.76C32.56,18.69,31.49,18.69,30.38,18.27z"/>
									</g>
									<g>
										<path class="st43" d="M29.31,12.38c-0.28-0.28-0.56-0.56-0.79-0.93c-0.05-0.09-0.09-0.19-0.19-0.28
											c-0.05-0.09-0.09-0.14-0.09-0.09l0,0l0,0c-0.05,0-0.05,0.32-0.05,0.37c-0.05,0.46-0.23,0.88-0.42,1.25
											c-0.51,1.07-1.3,1.86-1.35,2.78c-0.05,0.65,0.23,1.35,0.74,1.72c0.28,0.23,0.6,0.32,0.97,0.28
											c0.42-0.09,0.74-0.37,0.88-0.79c0.09-0.23,0.14-0.46,0.14-0.74c0.32,0.7,0.93,1.16,1.53,1.07c0.32-0.05,0.6-0.28,0.79-0.6
											c0.32-0.56,0.32-1.3,0.05-1.9C31.22,13.59,30.19,13.17,29.31,12.38z"/>
									</g>
									<g>
										<path class="st43" d="M28.11,6.22c-0.28-0.28-0.56-0.56-0.79-0.93c-0.05-0.09-0.09-0.19-0.19-0.28
											c-0.05-0.09-0.09-0.14-0.09-0.09l0,0l0,0c-0.05,0-0.05,0.32-0.05,0.37c-0.05,0.46-0.23,0.88-0.42,1.25
											c-0.51,1.07-1.3,1.86-1.35,2.78c-0.05,0.65,0.23,1.35,0.74,1.72c0.28,0.23,0.6,0.32,0.97,0.28
											c0.42-0.09,0.74-0.37,0.88-0.79c0.09-0.23,0.14-0.46,0.14-0.74c0.32,0.7,0.93,1.16,1.53,1.07c0.32-0.05,0.6-0.28,0.79-0.6
											c0.32-0.56,0.32-1.3,0.05-1.9C29.96,7.47,28.94,7,28.11,6.22z"/>
									</g>
								</g>
								<g>
									<path class="st41" d="M18.97,8.02c0.23,0.28,0.46,0.65,0.65,1.02c0.05,0.09,0.09,0.19,0.14,0.32
										c0.05,0.09,0.05,0.14,0.09,0.14l0,0l0,0c0.05,0,0.09-0.28,0.14-0.32c0.14-0.42,0.32-0.83,0.6-1.21
										c0.65-0.97,1.53-1.62,1.72-2.6c0.14-0.65-0.05-1.35-0.51-1.81c-0.23-0.28-0.56-0.42-0.93-0.42c-0.42,0-0.79,0.28-1.02,0.65
										c-0.14,0.19-0.23,0.46-0.23,0.7c-0.19-0.74-0.74-1.3-1.39-1.25c-0.32,0-0.65,0.19-0.88,0.46
										c-0.42,0.51-0.51,1.25-0.32,1.86C17.3,6.54,18.23,7.14,18.97,8.02z"/>
								</g>
								<g>
									<path class="st41" d="M19.85,14.33c0.28,0.28,0.51,0.6,0.74,0.97c0.05,0.09,0.09,0.19,0.14,0.28
										c0.05,0.09,0.05,0.14,0.09,0.14l0,0l0,0c0.05,0,0.09-0.28,0.09-0.37c0.09-0.42,0.28-0.83,0.46-1.25
										c0.56-1.02,1.39-1.76,1.48-2.74c0.09-0.65-0.19-1.35-0.65-1.76c-0.28-0.23-0.6-0.37-0.93-0.32
										c-0.42,0.05-0.74,0.32-0.93,0.74c-0.09,0.23-0.19,0.46-0.19,0.74c-0.28-0.74-0.88-1.21-1.48-1.11
										c-0.32,0.05-0.6,0.23-0.83,0.56c-0.37,0.51-0.42,1.3-0.19,1.9C18.04,12.99,19.02,13.5,19.85,14.33z"/>
								</g>
								<g>
									<path class="st41" d="M21.61,20.45c0.32,0.23,0.6,0.51,0.83,0.88c0.05,0.09,0.14,0.19,0.19,0.28
										c0.05,0.09,0.09,0.09,0.09,0.09l0,0l0,0c0.05,0,0.05-0.32,0.05-0.37c0.05-0.46,0.14-0.88,0.32-1.3
										c0.42-1.07,1.11-1.95,1.11-2.88c0-0.65-0.37-1.3-0.88-1.67c-0.32-0.19-0.65-0.28-0.97-0.19c-0.42,0.09-0.7,0.42-0.83,0.88
										c-0.09,0.23-0.09,0.46-0.09,0.74c-0.37-0.7-1.02-1.11-1.62-0.93c-0.32,0.09-0.6,0.32-0.74,0.65
										c-0.28,0.56-0.23,1.35,0.09,1.9C19.67,19.39,20.69,19.76,21.61,20.45z"/>
								</g>
								<g>
									<path class="st41" d="M24.3,26.3c0.32,0.19,0.7,0.37,1.02,0.7c0.09,0.09,0.14,0.14,0.23,0.23
										c0.05,0.05,0.09,0.09,0.14,0.09l0,0l0,0c0.05-0.05-0.05-0.32-0.05-0.37c-0.05-0.46-0.05-0.88,0.05-1.3
										c0.23-1.16,0.74-2.13,0.56-3.06c-0.14-0.65-0.6-1.21-1.21-1.48c-0.32-0.14-0.7-0.14-0.97,0c-0.37,0.19-0.6,0.56-0.65,1.02
										c-0.05,0.23,0,0.51,0.05,0.74c-0.46-0.6-1.21-0.88-1.76-0.6c-0.32,0.14-0.51,0.42-0.6,0.79c-0.19,0.6,0.05,1.35,0.46,1.86
										C22.17,25.6,23.28,25.74,24.3,26.3z"/>
								</g>
								<g>
									<path class="st41" d="M94.57,11.18c-0.19-0.32-0.37-0.7-0.46-1.11c-0.05-0.09-0.05-0.23-0.05-0.32
										c0-0.09-0.05-0.14-0.05-0.14l0,0l0,0c-0.05,0-0.14,0.28-0.19,0.32c-0.19,0.42-0.46,0.74-0.74,1.07
										c-0.79,0.83-1.76,1.39-2.13,2.27c-0.23,0.6-0.14,1.35,0.19,1.9c0.19,0.28,0.51,0.51,0.83,0.56
										c0.42,0.05,0.79-0.14,1.11-0.51c0.14-0.19,0.28-0.42,0.37-0.65c0.09,0.79,0.51,1.39,1.16,1.48
										c0.32,0.05,0.65-0.09,0.93-0.32c0.46-0.42,0.7-1.16,0.65-1.76C96.01,12.89,95.18,12.15,94.57,11.18z"/>
								</g>
							</g>
						</g>
						<path class="st44" d="M106.86,97.22c0-20.92-16.98-37.85-37.85-37.85S31.17,76.35,31.17,97.22s16.98,37.85,37.85,37.85
							S106.86,118.14,106.86,97.22z M44.53,97.22c0-13.54,10.95-24.49,24.49-24.49s24.49,10.95,24.49,24.49
							s-10.95,24.49-24.49,24.49C55.47,121.71,44.53,110.71,44.53,97.22z"/>
						<path class="st45" d="M105.75,51.72c0-28.94-23.47-52.37-52.37-52.37c-28.94,0-52.37,23.47-52.37,52.37
							c0,28.94,23.47,52.37,52.37,52.37S105.75,80.66,105.75,51.72z M19.48,51.72c0-18.69,15.17-33.86,33.86-33.86
							S87.2,33.02,87.2,51.72S72.03,85.58,53.34,85.58S19.48,70.45,19.48,51.72z"/>
						<g>
							
								<linearGradient id="SVGID_40_" gradientUnits="userSpaceOnUse" x1="-10.0919" y1="-1973.9719" x2="63.192" y2="-1893.267" gradientTransform="matrix(1 0 0 1 0 2006)">
								<stop  offset="0" style="stop-color:#FDC61F"/>
								<stop  offset="1" style="stop-color:#C1171D"/>
							</linearGradient>
							<circle class="st46" cx="9.55" cy="53.66" r="5.89"/>
							
								<linearGradient id="SVGID_41_" gradientUnits="userSpaceOnUse" x1="-16.1604" y1="-1968.4618" x2="57.1234" y2="-1887.7567" gradientTransform="matrix(1 0 0 1 0 2006)">
								<stop  offset="0" style="stop-color:#FDC61F"/>
								<stop  offset="1" style="stop-color:#C1171D"/>
							</linearGradient>
							<circle class="st47" cx="13.73" cy="70.45" r="5.89"/>
							
								<linearGradient id="SVGID_42_" gradientUnits="userSpaceOnUse" x1="-17.4167" y1="-1967.3213" x2="55.8672" y2="-1886.6162" gradientTransform="matrix(1 0 0 1 0 2006)">
								<stop  offset="0" style="stop-color:#FDC61F"/>
								<stop  offset="1" style="stop-color:#C1171D"/>
							</linearGradient>
							<circle class="st48" cx="24.07" cy="84.37" r="5.89"/>
							
								<linearGradient id="SVGID_43_" gradientUnits="userSpaceOnUse" x1="-5.3651" y1="-1978.2643" x2="67.9188" y2="-1897.5593" gradientTransform="matrix(1 0 0 1 0 2006)">
								<stop  offset="0" style="stop-color:#FDC61F"/>
								<stop  offset="1" style="stop-color:#C1171D"/>
							</linearGradient>
							<circle class="st49" cx="56.17" cy="95.5" r="5.89"/>
							
								<linearGradient id="SVGID_44_" gradientUnits="userSpaceOnUse" x1="6.0025" y1="-1988.5868" x2="79.2864" y2="-1907.8817" gradientTransform="matrix(1 0 0 1 0 2006)">
								<stop  offset="0" style="stop-color:#FDC61F"/>
								<stop  offset="1" style="stop-color:#C1171D"/>
							</linearGradient>
							<circle class="st50" cx="72.87" cy="91.05" r="5.89"/>
							
								<linearGradient id="SVGID_45_" gradientUnits="userSpaceOnUse" x1="18.8135" y1="-2000.2194" x2="92.0974" y2="-1919.5144" gradientTransform="matrix(1 0 0 1 0 2006)">
								<stop  offset="0" style="stop-color:#FDC61F"/>
								<stop  offset="1" style="stop-color:#C1171D"/>
							</linearGradient>
							<circle class="st51" cx="86.6" cy="80.43" r="5.89"/>
							
								<linearGradient id="SVGID_46_" gradientUnits="userSpaceOnUse" x1="30.993" y1="-2011.2792" x2="104.2769" y2="-1930.5742" gradientTransform="matrix(1 0 0 1 0 2006)">
								<stop  offset="0" style="stop-color:#FDC61F"/>
								<stop  offset="1" style="stop-color:#C1171D"/>
							</linearGradient>
							<circle class="st52" cx="95.13" cy="65.35" r="5.89"/>
							
								<linearGradient id="SVGID_47_" gradientUnits="userSpaceOnUse" x1="40.6756" y1="-2020.0714" x2="113.9594" y2="-1939.3665" gradientTransform="matrix(1 0 0 1 0 2006)">
								<stop  offset="0" style="stop-color:#FDC61F"/>
								<stop  offset="1" style="stop-color:#C1171D"/>
							</linearGradient>
							<circle class="st53" cx="97.17" cy="48.14" r="5.89"/>
							
								<linearGradient id="SVGID_48_" gradientUnits="userSpaceOnUse" x1="46.3454" y1="-2025.2198" x2="119.6292" y2="-1944.5149" gradientTransform="matrix(1 0 0 1 0 2006)">
								<stop  offset="0" style="stop-color:#FDC61F"/>
								<stop  offset="1" style="stop-color:#C1171D"/>
							</linearGradient>
							<path class="st54" d="M89.94,26.16c2.97-1.35,6.45-0.09,7.84,2.88c1.35,2.97,0.09,6.45-2.88,7.84
								c-2.97,1.35-6.45,0.09-7.84-2.88C85.71,31.03,87.01,27.5,89.94,26.16z"/>
							
								<linearGradient id="SVGID_49_" gradientUnits="userSpaceOnUse" x1="42.9322" y1="-2022.1206" x2="116.2161" y2="-1941.4155" gradientTransform="matrix(1 0 0 1 0 2006)">
								<stop  offset="0" style="stop-color:#FDC61F"/>
								<stop  offset="1" style="stop-color:#C1171D"/>
							</linearGradient>
							<circle class="st55" cx="66.37" cy="9.69" r="5.89"/>
							
								<linearGradient id="SVGID_50_" gradientUnits="userSpaceOnUse" x1="34.3334" y1="-2014.3123" x2="107.6173" y2="-1933.6072" gradientTransform="matrix(1 0 0 1 0 2006)">
								<stop  offset="0" style="stop-color:#FDC61F"/>
								<stop  offset="1" style="stop-color:#C1171D"/>
							</linearGradient>
							<path class="st56" d="M43.23,8.3c-0.19-3.25,2.32-6.03,5.57-6.22s6.03,2.32,6.22,5.57c0.19,3.25-2.32,6.03-5.57,6.22
								C46.2,14.01,43.41,11.55,43.23,8.3z"/>
							
								<linearGradient id="SVGID_51_" gradientUnits="userSpaceOnUse" x1="-2.113" y1="-1981.217" x2="71.1708" y2="-1900.512" gradientTransform="matrix(1 0 0 1 0 2006)">
								<stop  offset="0" style="stop-color:#FDC61F"/>
								<stop  offset="1" style="stop-color:#C1171D"/>
							</linearGradient>
							<circle class="st57" cx="11.22" cy="39.47" r="5.89"/>
						</g>
						<g>
							<path class="st43" d="M64.56,91.28c1.72-0.79,3.43-1.58,5.1-2.5c-1.3-0.79-2.41-1.72-3.48-2.69
								c-1.62,0.93-3.34,1.76-5.1,2.55C62.2,89.56,63.36,90.45,64.56,91.28z"/>
							<path class="st43" d="M57.47,85.2c-1.72,0.7-3.43,1.35-5.19,1.95c0.93,1.11,1.86,2.18,2.92,3.2
								c1.76-0.56,3.48-1.16,5.15-1.81C59.32,87.48,58.35,86.36,57.47,85.2z"/>
							<path class="st58" d="M49.49,83.21c-1.72,0.51-3.48,0.93-5.24,1.3c0.7,1.25,1.48,2.5,2.37,3.66
								c1.76-0.32,3.48-0.74,5.15-1.21C50.93,85.76,50.19,84.51,49.49,83.21z"/>
							<path class="st58" d="M42.12,80.1c-1.72,0.28-3.43,0.51-5.19,0.7c0.51,1.39,1.11,2.74,1.76,4.08
								c1.72-0.14,3.43-0.32,5.1-0.56C43.14,82.93,42.58,81.54,42.12,80.1z"/>
							<path class="st58" d="M35.48,75.97c-1.67,0.09-3.34,0.09-5.06,0.05c0.32,1.48,0.7,2.97,1.11,4.45
								c1.67,0.09,3.29,0.09,4.96,0.09C36.09,78.99,35.76,77.5,35.48,75.97z"/>
							<path class="st58" d="M29.68,70.87c-1.62-0.14-3.2-0.32-4.82-0.6c0.09,1.58,0.28,3.15,0.51,4.68
								c1.58,0.28,3.15,0.51,4.73,0.7C29.87,74.07,29.78,72.5,29.68,70.87z"/>
						</g>
						<g>
							<polygon class="st59" points="58.49,113.82 65.86,112.24 140.17,34.28 134.37,33.21 							"/>
							
								<linearGradient id="SVGID_52_" gradientUnits="userSpaceOnUse" x1="36.3637" y1="-1937.7487" x2="127.2728" y2="-1937.7487" gradientTransform="matrix(1 0 0 1 0 2006)">
								<stop  offset="0" style="stop-color:#FDC61F"/>
								<stop  offset="1" style="stop-color:#C1171D"/>
							</linearGradient>
							<polygon class="st60" points="111.18,27.92 127.27,31.63 51.62,108.58 36.36,101.86 							"/>
							<g>
								<g>
									<g>
										
											<linearGradient id="SVGID_53_" gradientUnits="userSpaceOnUse" x1="28.652" y1="-1885.2261" x2="96.8089" y2="-1955.1411" gradientTransform="matrix(1 0 0 1 0 2006)">
											<stop  offset="0" style="stop-color:#FDC61F"/>
											<stop  offset="1" style="stop-color:#C1171D"/>
										</linearGradient>
										<path class="st61" d="M47.26,98.79c-0.14,0.88-0.37,1.76-0.79,2.64c-0.09,0.23-0.23,0.46-0.32,0.65s-0.14,0.28-0.09,0.32
											h0.05v0.05c0.09,0.09,0.65-0.28,0.79-0.32c0.93-0.42,1.9-0.65,2.88-0.79c2.64-0.32,5.1,0.14,7-0.93
											c1.25-0.74,2.23-2.13,2.37-3.62c0.05-0.83-0.14-1.58-0.7-2.13c-0.65-0.7-1.62-0.88-2.64-0.7
											c-0.51,0.09-1.07,0.32-1.58,0.65c0.97-1.48,1.07-3.2,0.09-4.22c-0.56-0.56-1.3-0.79-2.13-0.79
											c-1.44,0.09-2.92,0.97-3.66,2.23C47.31,93.69,47.68,96.2,47.26,98.79z"/>
									</g>
									<g>
										
											<linearGradient id="SVGID_54_" gradientUnits="userSpaceOnUse" x1="28.8787" y1="-1885.01" x2="97.0293" y2="-1954.9183" gradientTransform="matrix(1 0 0 1 0 2006)">
											<stop  offset="0" style="stop-color:#FDC61F"/>
											<stop  offset="1" style="stop-color:#C1171D"/>
										</linearGradient>
										<path class="st62" d="M57.47,88.78c-0.14,0.88-0.37,1.76-0.79,2.64c-0.09,0.23-0.23,0.46-0.32,0.65
											c-0.09,0.19-0.14,0.28-0.09,0.32h0.05c0,0.05,0,0.05,0,0.05c0.09,0.09,0.65-0.28,0.79-0.32c0.93-0.42,1.9-0.65,2.88-0.79
											c2.64-0.32,5.1,0.14,7-0.93c1.25-0.74,2.23-2.13,2.37-3.62c0.05-0.83-0.14-1.58-0.7-2.13c-0.65-0.7-1.62-0.88-2.64-0.7
											c-0.51,0.09-1.07,0.32-1.58,0.65c0.97-1.48,1.07-3.2,0.09-4.22c-0.56-0.56-1.3-0.79-2.13-0.79
											c-1.44,0.09-2.92,0.97-3.66,2.23C57.47,83.72,57.88,86.18,57.47,88.78z"/>
									</g>
									<g>
										
											<linearGradient id="SVGID_55_" gradientUnits="userSpaceOnUse" x1="29.079" y1="-1884.8143" x2="97.2297" y2="-1954.7229" gradientTransform="matrix(1 0 0 1 0 2006)">
											<stop  offset="0" style="stop-color:#FDC61F"/>
											<stop  offset="1" style="stop-color:#C1171D"/>
										</linearGradient>
										<path class="st63" d="M67.63,78.76c-0.14,0.88-0.37,1.76-0.79,2.64c-0.09,0.23-0.23,0.46-0.32,0.65
											c-0.09,0.19-0.14,0.28-0.09,0.32h0.05v0.05c0.09,0.09,0.65-0.28,0.79-0.32c0.93-0.42,1.9-0.65,2.88-0.79
											c2.64-0.32,5.1,0.14,7-0.93c1.25-0.74,2.23-2.13,2.37-3.62c0.05-0.83-0.14-1.58-0.7-2.13c-0.65-0.7-1.62-0.88-2.64-0.7
											c-0.51,0.09-1.07,0.32-1.58,0.65c0.97-1.48,1.07-3.2,0.09-4.22c-0.56-0.56-1.3-0.79-2.13-0.79
											c-1.44,0.09-2.92,0.97-3.66,2.23C67.63,73.7,68.04,76.16,67.63,78.76z"/>
									</g>
									<g>
										
											<linearGradient id="SVGID_56_" gradientUnits="userSpaceOnUse" x1="29.3026" y1="-1884.5961" x2="97.454" y2="-1954.5054" gradientTransform="matrix(1 0 0 1 0 2006)">
											<stop  offset="0" style="stop-color:#FDC61F"/>
											<stop  offset="1" style="stop-color:#C1171D"/>
										</linearGradient>
										<path class="st64" d="M77.78,68.78c-0.14,0.88-0.37,1.76-0.79,2.64c-0.09,0.23-0.23,0.46-0.32,0.65s-0.14,0.28-0.09,0.32
											h0.05v0.05c0.09,0.09,0.65-0.28,0.79-0.32c0.93-0.42,1.9-0.65,2.88-0.79c2.64-0.32,5.1,0.14,7-0.93
											c1.25-0.74,2.23-2.13,2.37-3.62c0.05-0.83-0.14-1.58-0.7-2.13c-0.65-0.7-1.62-0.88-2.64-0.7
											c-0.51,0.09-1.07,0.32-1.58,0.65c0.97-1.48,1.07-3.2,0.09-4.22c-0.56-0.56-1.3-0.79-2.13-0.79
											c-1.44,0.09-2.92,0.97-3.66,2.23C77.83,63.68,78.2,66.14,77.78,68.78z"/>
									</g>
									<g>
										
											<linearGradient id="SVGID_57_" gradientUnits="userSpaceOnUse" x1="29.5297" y1="-1884.3802" x2="97.6777" y2="-1954.2861" gradientTransform="matrix(1 0 0 1 0 2006)">
											<stop  offset="0" style="stop-color:#FDC61F"/>
											<stop  offset="1" style="stop-color:#C1171D"/>
										</linearGradient>
										<path class="st65" d="M87.99,58.77c-0.14,0.88-0.37,1.76-0.79,2.64c-0.09,0.23-0.23,0.46-0.32,0.65
											c-0.09,0.19-0.14,0.28-0.09,0.32h0.05v0.05c0.09,0.09,0.65-0.28,0.79-0.32c0.93-0.42,1.9-0.65,2.88-0.79
											c2.64-0.32,5.1,0.14,7-0.93c1.25-0.74,2.23-2.13,2.37-3.62c0.05-0.83-0.14-1.58-0.7-2.13c-0.65-0.7-1.62-0.88-2.64-0.7
											c-0.51,0.09-1.07,0.32-1.58,0.65c0.97-1.48,1.07-3.2,0.09-4.22c-0.56-0.56-1.3-0.79-2.13-0.79
											c-1.44,0.09-2.92,0.97-3.66,2.23C87.99,53.66,88.4,56.12,87.99,58.77z"/>
									</g>
									<g>
										
											<linearGradient id="SVGID_58_" gradientUnits="userSpaceOnUse" x1="29.7271" y1="-1884.1816" x2="97.8784" y2="-1954.0909" gradientTransform="matrix(1 0 0 1 0 2006)">
											<stop  offset="0" style="stop-color:#FDC61F"/>
											<stop  offset="1" style="stop-color:#C1171D"/>
										</linearGradient>
										<path class="st66" d="M98.14,48.75c-0.14,0.88-0.37,1.76-0.79,2.64c-0.09,0.23-0.23,0.46-0.32,0.65
											c-0.09,0.19-0.14,0.28-0.09,0.32h0.05v0.05c0.09,0.09,0.65-0.28,0.79-0.32c0.93-0.42,1.9-0.65,2.88-0.79
											c2.64-0.32,5.1,0.14,7-0.93c1.25-0.74,2.23-2.13,2.37-3.62c0.05-0.83-0.14-1.58-0.7-2.13c-0.65-0.7-1.62-0.88-2.64-0.7
											c-0.51,0.09-1.07,0.32-1.58,0.65c0.97-1.48,1.07-3.2,0.09-4.22c-0.56-0.56-1.3-0.79-2.13-0.79
											c-1.44,0.09-2.92,0.97-3.66,2.23C98.14,43.65,98.56,46.1,98.14,48.75z"/>
									</g>
									<g>
										
											<linearGradient id="SVGID_59_" gradientUnits="userSpaceOnUse" x1="29.9285" y1="-1883.9872" x2="98.0787" y2="-1953.8953" gradientTransform="matrix(1 0 0 1 0 2006)">
											<stop  offset="0" style="stop-color:#FDC61F"/>
											<stop  offset="1" style="stop-color:#C1171D"/>
										</linearGradient>
										<path class="st67" d="M108.3,38.73c-0.14,0.88-0.37,1.76-0.79,2.64c-0.09,0.23-0.23,0.46-0.32,0.65s-0.14,0.28-0.09,0.32
											h0.05c0,0.05,0,0.05,0,0.05c0.09,0.09,0.65-0.28,0.79-0.32c0.93-0.42,1.9-0.65,2.88-0.79c2.64-0.32,5.1,0.14,7-0.93
											c1.25-0.74,2.23-2.13,2.37-3.62c0.05-0.83-0.14-1.58-0.7-2.13c-0.65-0.7-1.62-0.88-2.64-0.7
											c-0.51,0.09-1.07,0.32-1.58,0.65c0.97-1.48,1.07-3.2,0.09-4.22c-0.56-0.56-1.3-0.79-2.13-0.79
											c-1.44,0.09-2.92,0.97-3.66,2.23C108.35,33.63,108.77,36.09,108.3,38.73z"/>
									</g>
								</g>
							</g>
						</g>
					</g>
				</g>
			</g>
		</g>
	</g>
</g>
</svg>
